<?xml version="1.0" encoding="utf-8"?>
<!-- Generator: Adobe Illustrator 18.1.1, SVG Export Plug-In . SVG Version: 6.00 Build 0)  -->
<!DOCTYPE svg PUBLIC "-//W3C//DTD SVG 1.1//EN" "http://www.w3.org/Graphics/SVG/1.1/DTD/svg11.dtd">
<svg version="1.1" id="Ebene_1" xmlns="http://www.w3.org/2000/svg" xmlns:xlink="http://www.w3.org/1999/xlink" x="0px" y="0px"
	 viewBox="0 0 260 353.31" style="enable-background:new 0 0 260 353.31;" xml:space="preserve">
<style type="text/css">
	.st0{fill:#635949;}
	.st1{fill:#80878B;}
	.st2{fill:#617237;}
	.st3{fill:#617237;stroke:#9FC250;stroke-width:0;stroke-linecap:round;stroke-linejoin:round;}
</style>
<g>
	<g>
		<path class="st0" d="M22.691,254.534v40.184c0,1.672,0.593,2.211,1.888,2.211c0.863,0,1.51-0.323,1.51-0.323v3.56
			c0,0-0.971,0.593-3.021,0.593c-2.859,0-4.639-1.564-4.639-4.962v-41.263H22.691z"/>
		<path class="st0" d="M55.862,290.349c0,4.207-2.697,10.41-12.136,10.41c-11.813,0-13.754-9.008-13.754-20.874
			c0-10.141,1.834-19.041,13.161-19.041c10.788,0,12.783,9.116,12.783,19.094v1.079H34.287c0.054,8.792,1.079,15.912,9.547,15.912
			c6.85,0,8.252-4.423,8.252-7.39L55.862,290.349z M34.341,277.188h17.26c-0.162-7.012-1.834-12.514-8.468-12.514
			C35.905,264.674,34.557,270.338,34.341,277.188z"/>
		<path class="st0" d="M72.206,300.327H60.447v-3.776h3.776V273.25h-3.776v-3.776h11.759v3.776h-3.722v23.302h3.722V300.327z
			 M66.272,258.633c2.211,0,4.153,1.834,4.153,3.992c0,2.211-1.942,4.045-4.153,4.045c-2.373,0-4.207-1.834-4.207-4.045
			C62.065,260.467,63.899,258.633,66.272,258.633z"/>
		<path class="st0" d="M78.355,307.07v-45.794H82.4v5.502h0.216c0.863-2.805,3.776-5.933,8.684-5.933
			c9.116,0,12.837,7.12,12.837,19.904c0,13.107-3.776,20.011-12.837,20.011c-4.908,0-7.551-2.859-8.414-5.826h-0.27v12.136H78.355z
			 M91.3,296.929c6.311,0,8.684-5.771,8.684-16.181c0-10.086-2.373-16.074-8.684-16.074c-6.904,0-9.17,6.311-9.17,16.074
			S84.773,296.929,91.3,296.929z"/>
		<path class="st0" d="M109.315,270.823c0-4.746,3.344-9.979,11.597-9.979c8.414,0,12.298,4.531,12.298,11.058l-4.099,0.647
			c0-4.693-2.427-7.875-8.091-7.875c-5.34,0-7.444,2.967-7.444,6.203c0,9.385,19.796,5.394,19.796,19.688
			c0,5.394-3.129,10.14-12.46,10.248c-9.008,0.108-12.352-5.394-12.352-10.41l4.045-0.647c0,3.614,2.158,7.228,8.414,7.228
			c6.527,0,8.037-3.56,8.037-6.796C129.056,279.777,109.315,284.416,109.315,270.823z"/>
		<path class="st0" d="M139.574,307.07v-45.794h4.045v5.502h0.216c0.863-2.805,3.776-5.933,8.684-5.933
			c9.116,0,12.837,7.12,12.837,19.904c0,13.107-3.776,20.011-12.837,20.011c-4.908,0-7.552-2.859-8.414-5.826h-0.269v12.136H139.574
			z M152.519,296.929c6.311,0,8.684-5.771,8.684-16.181c0-10.086-2.373-16.074-8.684-16.074c-6.904,0-9.17,6.311-9.17,16.074
			S145.992,296.929,152.519,296.929z"/>
		<path class="st0" d="M196.263,290.349c0,4.207-2.697,10.41-12.136,10.41c-11.813,0-13.755-9.008-13.755-20.874
			c0-10.141,1.834-19.041,13.161-19.041c10.788,0,12.783,9.116,12.783,19.094v1.079h-21.63c0.054,8.792,1.079,15.912,9.547,15.912
			c6.85,0,8.253-4.423,8.253-7.39L196.263,290.349z M174.741,277.188h17.26c-0.162-7.012-1.834-12.514-8.468-12.514
			C176.305,264.674,174.957,270.338,174.741,277.188z"/>
		<path class="st0" d="M212.606,300.327h-11.759v-3.776h3.776V273.25h-3.776v-3.776h11.759v3.776h-3.722v23.302h3.722V300.327z
			 M206.672,258.633c2.211,0,4.153,1.834,4.153,3.992c0,2.211-1.942,4.045-4.153,4.045c-2.373,0-4.207-1.834-4.207-4.045
			C202.465,260.467,204.299,258.633,206.672,258.633z"/>
		<path class="st0" d="M217.514,270.823c0-4.746,3.344-9.979,11.597-9.979c8.414,0,12.298,4.531,12.298,11.058l-4.099,0.647
			c0-4.693-2.427-7.875-8.091-7.875c-5.34,0-7.443,2.967-7.443,6.203c0,9.385,19.795,5.394,19.795,19.688
			c0,5.394-3.128,10.14-12.46,10.248c-9.008,0.108-12.352-5.394-12.352-10.41l4.045-0.647c0,3.614,2.158,7.228,8.414,7.228
			c6.527,0,8.037-3.56,8.037-6.796C237.255,279.777,217.514,284.416,217.514,270.823z"/>
	</g>
	<g>
		<path class="st1" d="M119.933,139.722c-0.166-0.173-0.307-0.367-0.419-0.576l0.113-0.226l0.639,0.635L119.933,139.722z
			 M170.545,9.71h1.061V7.907l-1.061,0.529V9.71z M91.486,58.619l-0.502,2.012h-1.271l-0.639-1.274v-1.274h1.851
			C91.139,58.236,91.328,58.416,91.486,58.619z M91.62,30.078l2.549-2.549v-1.271l-3.819-1.274l-0.635,1.274v2.46
			c0.028,0.047,0.054,0.094,0.083,0.14L91.62,30.078z M92.895,47.898l-0.635-0.635l-1.91,1.274l-0.303,1.212
			c0.05,0.445,0.126,0.89,0.225,1.333h0.713L92.895,47.898z M101.17,59.992l-1.274,0.639l-0.239,0.959
			c1.341,0.514,2.713,0.826,4.067,0.935l0.628-1.259L101.17,59.992z M103.714,24.984l1.274,0.635l-0.635-1.906L103.714,24.984z
			 M102.79,33.355c-0.208,0.138-0.422,0.261-0.64,0.374l-1.619-2.7l2.549-2.545l1.91,1.274l0.173,0.868
			C104.619,31.725,103.827,32.665,102.79,33.355z M108.172,39.623l1.222,0.614c0.015,0.01,0.03,0.02,0.044,0.03l-0.631,0.631
			l-1.274,0.635L108.172,39.623z M145.426,28.005l0.297-0.476h0.635l0.639,1.91l-0.03,0.06
			C146.32,29.081,145.793,28.574,145.426,28.005z M143.178,34.533l-0.236-0.706c0.431-0.023,0.861-0.02,1.286,0.005L143.178,34.533z
			 M153.997,22.439l0.265-0.532c0.445,0.146,0.862,0.324,1.246,0.532H153.997z M161.243,20.284c0.06-0.342,0.137-0.685,0.232-1.028
			h0.797L161.243,20.284z M162.678,37.167c0.799-0.577,1.678-1.043,2.614-1.402l1.756,1.317l1.271,0.635l-4.455,0.635
			L162.678,37.167z M170.545,37.714l1.061,0.176v5.892l-1.696-0.339l-0.635-4.455L170.545,37.714z M133.312,40.257v-0.344
			c0.181-0.334,0.377-0.659,0.59-0.974l1.32,1.318H133.312z M114.312,57.829c0.464-0.686,0.834-1.412,1.115-2.165l-1.53,0.512
			L114.312,57.829z M115.791,49.172c-0.054-0.239-0.115-0.477-0.184-0.714l-1.071,0.714H115.791z M125.991,58.721l-0.345-0.346
			c-0.372-0.112-0.754-0.203-1.146-0.27l-0.419,1.251L125.991,58.721z M127.265,66.995l1.274-0.639l-0.639-0.635L127.265,66.995z
			 M133.301,61.155c0,0.144,0.016,0.285,0.04,0.423l1.563-0.312l-0.292-2.329C133.824,59.408,133.301,60.224,133.301,61.155z
			 M140.633,66.356l-1.91,0.639l-0.639,3.181l1.91-1.271L140.633,66.356z M140.984,56.741c0.717,0.161,1.452,0.255,2.198,0.276
			l0.632-0.842L140.984,56.741z M145.723,37.078l1.274,2.545l1.91,0.639l3.214-2.682c-0.776-0.846-1.669-1.567-2.646-2.144
			l-0.569,2.278L145.723,37.078z M154.95,43.205c-0.09-0.461-0.205-0.922-0.353-1.38c-0.161-0.494-0.354-0.968-0.572-1.425
			l0.608,3.043L154.95,43.205z M166.09,44.717l-0.635-0.635l-0.639,1.271L166.09,44.717z M166.726,56.811v1.271L168,60.631
			l3.606,1.2v-0.303l-2.331-4.081L166.726,56.811z M157.816,91.183l0.635,1.271L161,93.093v-1.274l-1.91-1.274L157.816,91.183z
			 M160.361,79.725l-0.974,0.487c-0.262-0.372-0.461-0.769-0.59-1.176l0.294-0.586L160.361,79.725z M164.181,79.725l1.928,0.552
			c-0.095,0.251-0.221,0.491-0.388,0.713c-0.684,0.911-1.824,1.314-3.015,1.194L164.181,79.725z M163.796,98.956
			c0.411-0.012,0.827,0.006,1.245,0.054l-0.224,0.448h-1.271L163.796,98.956z M166.867,92.632c0-0.413,0.028-0.816,0.079-1.207
			l0.418,1.668l-0.409,0.814C166.898,93.495,166.867,93.069,166.867,92.632z M170.701,112.963c-1.098,0.856-2.451,1.362-3.894,1.491
			l-0.716-0.357l1.91-2.545l-0.635-3.184l3.18,3.82L170.701,112.963z M88.44,70.176l-0.084-0.042v-2.378l0.084-0.126h1.91
			l-0.635,1.91L88.44,70.176z M94.804,80.36v-1.271l-1.015-0.761c-0.721,0.911-1.28,1.905-1.656,2.958l1.396,0.349L94.804,80.36z
			 M95.18,91.905c0.172,0.157,0.35,0.309,0.533,0.458l-0.273-0.545L95.18,91.905z M100.533,75.27l-0.454-1.363
			c-0.607,0.229-1.191,0.488-1.749,0.776l0.293,0.588H100.533z M107.438,68.089c0-0.512-0.161-0.989-0.434-1.394l-2.652,2.211
			l1.531,1.531C106.806,69.998,107.438,69.112,107.438,68.089z M104.988,92.454l-0.635,2.549l1.91,0.635l0.635-0.635L104.988,92.454
			z M110.717,90.544l-0.635-2.545l-2.549-1.274v1.274l0.639,1.274L110.717,90.544z M120.265,86.089v-6.365h-2.549l-1.271,3.184
			l0.635,2.545L120.265,86.089z M125.667,79.384c-0.289,0.538-0.538,1.097-0.745,1.673l2.343,3.123L125.667,79.384z M134.265,79.725
			l-1.271-5.09l2.545,0.635l3.184-1.91l-0.039-0.079c-2.274-0.469-4.694-0.295-6.987,0.647c-0.72,0.295-1.393,0.656-2.022,1.068
			l0.774,1.548L134.265,79.725z M134.904,93.093l-1.274,0.635v1.274l2.545,1.271l1.91-1.271l-0.635-0.639L134.904,93.093z
			 M139.994,95.638l-0.635,0.635l-0.635,1.274l0.031,0.187c0.816-0.147,1.628-0.381,2.424-0.708
			c0.604-0.248,1.177-0.541,1.717-0.872l-0.357,0.119L139.994,95.638z M141.268,86.089l1.91-0.635V84.18l-1.274-0.635
			L141.268,86.089z M145.723,101.367l-0.006,0.011c0.302,0.456,0.747,0.821,1.28,1.04v-0.415L145.723,101.367z M155.271,73.36
			l-7.003,0.635v1.411c2.132,0.716,4.694,0.635,7.171-0.305l1.103-1.106L155.271,73.36z M156.542,88.635l2.549-0.635v-1.517
			c-0.438-0.079-0.891-0.124-1.358-0.124c-0.478,0-0.942,0.048-1.39,0.13l-0.436,0.875L156.542,88.635z M89.383,100.143
			l-0.943,3.769l-0.084,0.021v1.412l5.174-2.069l1.274-1.91v-0.253c-1.019-0.801-2.258-1.275-3.599-1.275
			C90.571,99.84,89.96,99.948,89.383,100.143z M89.075,110.913h-0.719v-1.081L89.075,110.913z M91.62,110.913l0.639,1.274H91.62
			V110.913z M106.898,103.912h-0.062c0.763-0.992,1.688-1.93,2.755-2.775l1.126,1.501L106.898,103.912z M117.081,116.642
			l-1.91-3.181v-3.184l3.184,1.274l0.635,1.91l-0.635,0.635L117.081,116.642z M134.265,116.642l1.57,1.883
			c-0.625-1.544-2.093-2.568-3.866-2.88l-0.249,0.997H134.265z M134.265,123.007l0.529,0.529c-0.163,0.191-0.34,0.375-0.529,0.551
			V123.007z M140.538,121.492l0.73,0.244l1.91,1.91h1.085c-0.281,0.085-0.58,0.132-0.892,0.132
			C141.921,123.778,140.727,122.782,140.538,121.492z M171.606,123.933c-0.072-0.652-0.221-1.277-0.442-1.861l0.442-0.442V123.933z
			 M164.182,130.644l-1.473,0.493c0.63,0.333,1.314,0.558,2.038,0.64L164.182,130.644z M92.259,121.736l-0.639,0.635h0.639V121.736z
			 M92.895,142.739h3.819v-1.274l-2.545-2.545l-0.053-0.013c-0.487,0.089-0.929,0.292-1.293,0.577l0.072,0.072V142.739z
			 M96.714,125.555l-1.274-1.274h-1.271v1.274l2.545,2.545V125.555z M97.988,121.736l-1.91-0.639v1.274h1.91V121.736z
			 M100.533,116.642l0.346-0.806c-0.516-0.191-1.058-0.339-1.62-0.439v1.884L100.533,116.642z M101.169,128.1l-1.271,1.271v0.449
			c1.11-0.277,2.127-0.745,3.002-1.362l0.179-0.357H101.169z M103.078,121.736l1.274-1.274l1.366,0.124
			c-0.214-0.637-0.521-1.239-0.91-1.792l-2.366,0.394L103.078,121.736z M104.988,135.739l-1.274-0.639l-0.188,0.565
			c0.364,0.186,0.776,0.298,1.215,0.321L104.988,135.739z M119.626,125.555l1.707,0.426c-0.169-0.895-0.489-1.728-0.931-2.461
			l-2.046-0.514L119.626,125.555z M127.267,129.055h1.277c-0.288-0.204-0.619-0.357-0.978-0.448L127.267,129.055z M133.366,128.844
			c-0.061,0.17-0.104,0.347-0.133,0.528h0.397L133.366,128.844z M170.547,122.689l0.617-0.617c-0.137-0.363-0.305-0.707-0.492-1.036
			l-0.76,0.379L170.547,122.689z M163.545,165.653l-0.311-0.928c-0.383,0.013-0.747,0.096-1.077,0.235L163.545,165.653z
			 M113.262,159.924v0.189c-0.483,0.468-1.034,0.783-1.627,0.908l-2.192-1.098l0.639-0.635L113.262,159.924z M133.63,153.559
			l0.635-1.91l-1.271,0.639h-1.274l0.635,1.91L133.63,153.559z M155.268,178.386l1.271,1.271h0.003l0.318-1.112l-0.318-0.159
			H155.268z M88.495,165.543l-0.055,0.11v1.274h0.264c0.015-0.111,0.026-0.222,0.026-0.337 M100.212,184.429l-4.024-0.309
			c-0.035-0.08-0.074-0.159-0.104-0.242c-0.118-0.326-0.185-0.659-0.214-0.993l2.433,0.27l1.274-0.635L100.212,184.429z
			 M103.714,181.566l1.395-1.395c-0.034-0.07-0.073-0.135-0.11-0.202l-0.646,0.323L103.714,181.566z M130.647,216.465
			c0.232,0.104,0.477,0.195,0.733,0.274l-0.619-0.617L130.647,216.465z M124.717,227.226l-0.479-0.479
			c0.354-0.411,0.836-0.723,1.392-0.882l0.361,0.723L124.717,227.226z M110.082,213.393l-0.595,0.297
			c0.12,0.124,0.252,0.237,0.395,0.339h0.2V213.393z M157.045,177.898l0.771-2.697h-1.274l-1.318,0.989
			C155.499,176.995,156.18,177.631,157.045,177.898z M165.314,151.364c0.082-0.58,0.325-1.108,0.686-1.565l1.682,2.805l-0.45,2.47
			C165.893,154.147,165.115,152.774,165.314,151.364z M119.309,182.521v-3.184l-0.246-0.049c-0.567,0.743-0.926,1.56-1.061,2.361
			L119.309,182.521z M171.606,7.161V4.191l-2.657,0.857c0.482,0.473,0.78,1.108,0.78,1.808c0,1.459-1.281,2.641-2.861,2.641
			c-1.58,0-2.861-1.183-2.861-2.641c0-0.079,0.005-0.156,0.013-0.234l-6.846,2.162l-0.249,0.194
			c0.253,0.262,0.476,0.557,0.651,0.891c1.113,2.124,0.079,4.861-2.311,6.114c-2.177,1.141-4.722,0.653-6-1.047l-0.752,0.585
			l-4.918,2.682l-0.416,0.416v-0.162l-3.296,4.176c1.273,0.268,2.223,1.317,2.223,2.573c0,1.459-1.281,2.641-2.861,2.641
			c-1.046,0-1.957-0.52-2.456-1.293l-0.789,1l-4.815,4.332h-3.849l-2.888-2.408l-2.405-3.369l-1.602-1.525l0.461,2.309h-1.274
			v-2.545l0.276-0.275l-7.043-6.706c-0.952,0.41-2.128,0.595-3.377,0.47c-2.903-0.292-5.093-2.146-4.893-4.142
			c0.074-0.739,0.467-1.393,1.078-1.91l-1.435-1.077L92.2,4.933l-1.094-0.298c-0.523,0.626-1.34,1.031-2.262,1.031
			c-0.167,0-0.329-0.015-0.488-0.04v14.376c0.489-1.652,1.453-3.069,2.875-4.016c3.833-2.551,9.528-0.731,12.72,4.066
			c2.329,3.499,2.68,7.614,1.212,10.575l0.462,2.312v2.548l-3.184-1.274l-0.291-0.484c-3.804,1.968-9.061,0.097-12.08-4.439
			c-0.095-0.143-0.186-0.286-0.274-0.43l-0.083-0.056v-0.085c-0.621-1.045-1.072-2.135-1.358-3.224V35.53l1.994-0.997l-1.274,4.455
			l-0.719,0.721v0.372c0.115,0.296,0.216,0.598,0.292,0.914c0.349,1.457,0.221,2.932-0.292,4.297v12.34
			c0.258-0.071,0.531-0.11,0.814-0.11c0.663,0,1.271,0.21,1.756,0.559h0.694l-0.134,0.536c0.341,0.435,0.544,0.968,0.544,1.546
			c0,1.459-1.281,2.641-2.861,2.641c-0.283,0-0.556-0.039-0.814-0.11v3.487c0.565-0.421,1.213-0.774,1.929-1.034
			c3.257-1.182,6.678,0.013,7.643,2.67c0.964,2.657-0.894,5.769-4.151,6.951c-1.933,0.702-3.92,0.56-5.421-0.222v7.864
			c0.757,0.476,1.254,1.277,1.254,2.185c0,0.909-0.497,1.71-1.254,2.185v4.641c0.015,0,0.029-0.002,0.043-0.002
			c1.58,0,2.861,1.183,2.861,2.641c0,1.459-1.281,2.641-2.861,2.641c-0.015,0-0.029-0.002-0.043-0.002v3.908
			c0.327-0.187,0.67-0.345,1.027-0.466l0.331-1.325l3.18-1.906h1.91v4.202c1.616,1.269,2.674,3.366,2.674,5.742
			c0,3.875-2.809,7.016-6.273,7.016c-1.026,0-1.994-0.278-2.85-0.766v1.446l0.719,0.18v1.274l-0.719-0.239v43.957l0.4,0.2
			l-0.4,0.802v4.565c0.05,0.082,0.098,0.166,0.139,0.253l0.581-1.161l1.274,0.635v1.91h-1.646c-0.048,0.346-0.17,0.669-0.348,0.96
			v28.719l6.705,7.422c0.267-1.204,1.42-2.109,2.803-2.109c1.58,0,2.861,1.183,2.861,2.641s-1.281,2.641-2.861,2.641
			c-0.029,0-0.057-0.003-0.086-0.004l3.086,3.704l0.961,0.48l2.408,4.332l8.181,7.701l2.408,4.332l3.849,4.332l8.184,5.776
			l2.405,0.481l4.332-0.963l4.223-3.659c-0.669-0.483-1.101-1.234-1.101-2.079c0-1.459,1.281-2.641,2.861-2.641
			c0.883,0,1.672,0.37,2.197,0.95l3.372-4.12l1.925-0.963l3.849-3.849l6.253-8.659l-0.477-3.343h0.004l-0.004-0.031h2.888
			l2.971-2.23c-1.066-2.499-0.604-5.235,1.303-6.612c1.287-0.93,2.956-1.042,4.532-0.464l1.783-3.208l1.436-1.118v-39.144
			c-0.496,0.04-1.013,0.029-1.54-0.046c-1.082-0.153-2.052-0.542-2.832-1.081l-0.825,4.53v1.91l-1.271-1.91l-0.639-5.09l-1.91-0.635
			l-3.18-4.458h-3.184l1.274-1.906l3.819,0.635l2.545,3.181l1.91-1.91l0.227,0.379c1.027-1.3,3.034-2.027,5.208-1.719
			c0.135,0.019,0.266,0.046,0.398,0.072v-22.493c-0.381,3.467-3.021,6.153-6.224,6.153c-0.214,0-0.426-0.012-0.634-0.036
			l0.071,0.142h-1.271l-1.274-0.635l0.437-0.146c-2.126-1.123-3.601-3.536-3.601-6.341c0-3.875,2.809-7.016,6.273-7.016
			c2.226,0,4.176,1.301,5.29,3.256l0.514-0.256h0.42v-8.676c-0.277,0.316-0.578,0.605-0.905,0.86l0.483,2.409l-3.819-0.639
			l-0.558-0.278c-1.919,0.172-3.996-0.318-5.834-1.526c-3.924-2.578-5.279-7.448-3.026-10.877c1.288-1.961,3.478-3.024,5.85-3.094
			l1.02-2.044h1.274l-1.05,2.097c1.39,0.159,2.798,0.652,4.09,1.5c0.997,0.655,1.827,1.458,2.475,2.348v-4.147
			c-0.217,0.054-0.439,0.084-0.666,0.084c-1.96,0-3.596-2.097-3.984-4.888l-0.23,0.457l-0.635,0.639l-1.274-3.184l0.639-1.274h1.271
			l0.221,0.88c0.371-2.826,2.017-4.957,3.993-4.957c0.227,0,0.449,0.031,0.666,0.085v-4.391c-2.707-2.231-4.181-5.435-3.618-8.681
			c0.394-2.274,1.724-4.192,3.618-5.547v-5.311c-2.011-0.628-4.004-1.625-5.861-2.997c-7.248-5.357-9.658-14.388-5.384-20.171
			c0.66-0.893,1.441-1.655,2.317-2.288l-0.724-0.724l-0.635-1.91l0.635-1.271l3.338,2.503c1.917-0.735,4.079-1.009,6.315-0.82
			v-7.057c-1.885,1.467-4.169,2.023-6.247,1.285c-3.171-1.126-4.816-4.893-4.116-8.889l-0.881,0.881l0.639-1.91h0.474
			c0.072-0.261,0.153-0.522,0.245-0.783c1.639-4.614,5.925-7.304,9.573-6.008c0.106,0.038,0.21,0.08,0.313,0.124v-1.736l-2.97-1.782
			l2.548-1.91H171.606z M92.832,12.139c-1.58,0-2.861-1.183-2.861-2.641s1.281-2.641,2.861-2.641c1.58,0,2.861,1.183,2.861,2.641
			S94.413,12.139,92.832,12.139z M169.91,187.929l0.635,1.274h-0.635V187.929z M168.635,182.839L168,184.11l-1.274-0.635
			L168.635,182.839z M169.274,139.555h1.271v1.91l-1.271,0.639V139.555z M166.089,143.696h-1.271v-1.274h2.545L166.089,143.696z
			 M164.116,134.894c1.58,0,2.861,1.183,2.861,2.641s-1.281,2.641-2.861,2.641c-1.58,0-2.861-1.183-2.861-2.641
			S162.536,134.894,164.116,134.894z M132.476,49.008c-1.02-3.141-0.622-6.4,0.836-9.095v-1.562l0.59,0.589
			c1.402-2.078,3.481-3.723,6.051-4.558c0.992-0.322,1.995-0.502,2.989-0.554l-0.403-1.204l2.887-4.618
			c-0.375-0.581-0.589-1.225-0.589-1.904c0-2.559,2.966-4.634,6.624-4.634c1.003,0,1.95,0.161,2.802,0.44l0.37-0.742l0.639-0.635
			l0.635,1.91h-0.399c1.564,0.848,2.576,2.171,2.576,3.662c0,2.559-2.966,4.634-6.624,4.634c-1.736,0-3.312-0.471-4.493-1.236
			l-1.88,3.759l-0.859,0.573c1.868,0.109,3.666,0.668,5.247,1.604l0.067-0.267l0.635-1.271l1.91,1.271l0.635,1.91l-0.601,0.502
			c0.758,0.826,1.402,1.771,1.903,2.82l-0.028-0.138l2.545-1.274h1.274l-0.635,2.545l-2.231,1.672
			c1.103,5.673-2.182,11.412-7.831,13.246c-1.308,0.425-2.637,0.604-3.937,0.566l-1.278,1.703l-0.635-0.639l-0.635-1.271l0.351-0.07
			c-1.872-0.42-3.617-1.296-5.067-2.547l-1.652,1.982l0.347,2.761c0.447-0.267,0.979-0.424,1.551-0.424
			c1.58,0,2.861,1.183,2.861,2.641c0,1.459-1.281,2.641-2.861,2.641c-1.424,0-2.602-0.961-2.821-2.218l-1.621,0.323l1.91-8.274
			l1.143-0.57C133.769,51.911,132.976,50.548,132.476,49.008z M151.452,109.003v0.639h-1.91v-1.274L151.452,109.003z
			 M151.075,81.241c0-1.459,1.281-2.641,2.861-2.641c1.58,0,2.861,1.183,2.861,2.641c0,1.459-1.281,2.641-2.861,2.641
			C152.356,83.882,151.075,82.699,151.075,81.241z M148.158,102.647c-0.414,0-0.806-0.083-1.161-0.229v0.22h-1.91l0.63-1.26
			c-0.265-0.4-0.42-0.869-0.42-1.373c0-1.459,1.281-2.641,2.861-2.641s2.861,1.183,2.861,2.641S149.739,102.647,148.158,102.647z
			 M155.092,175.395c0-1.459,1.281-2.641,2.861-2.641c1.58,0,2.861,1.183,2.861,2.641c0,1.459-1.281,2.641-2.861,2.641
			c-0.318,0-0.622-0.05-0.908-0.138l-0.185,0.646l0.953,0.476l-0.635,1.274l-0.639-0.639h-2.542v-2.545l1.227-0.921
			C155.138,175.94,155.092,175.672,155.092,175.395z M155.271,163.743l0.635-1.271l0.635,0.635L155.271,163.743z M149.539,184.75
			l-0.635,1.271l-1.274-1.271l0.639-0.639h-0.635l1.274-1.271l-0.639,1.271L149.539,184.75z M142.656,163.564
			c0-1.459,1.281-2.641,2.861-2.641c1.58,0,2.861,1.183,2.861,2.641s-1.281,2.641-2.861,2.641
			C143.937,166.205,142.656,165.023,142.656,163.564z M145.088,191.115l-0.639,1.271l-1.271,0.639l0.635-1.91H145.088z
			 M145.022,149.146c-0.215,0-0.428-0.009-0.637-0.026l-2.481,0.619l-0.884-1.771c-0.278-0.188-0.533-0.398-0.768-0.622
			l-2.803,1.122l0.635-3.184l-0.635-1.91l1.308,0.784c-0.001-0.044-0.008-0.087-0.008-0.131c0-2.826,2.809-5.117,6.273-5.117
			c3.464,0,6.273,2.291,6.273,5.117C151.295,146.855,148.486,149.146,145.022,149.146z M136.272,185.3
			c0-1.459,1.281-2.641,2.861-2.641c1.58,0,2.861,1.183,2.861,2.641c0,1.459-1.281,2.641-2.861,2.641
			C137.554,187.942,136.272,186.759,136.272,185.3z M138.084,193.66l-1.271,0.635l0.635-1.271L138.084,193.66z M131.4,199.07
			l2.545,0.635l-0.635,1.91l-1.274,0.635l-1.271-0.635L131.4,199.07z M131.081,190.476v-1.271l1.274,1.271H131.081z
			 M132.994,182.841h-1.274l0.635-1.91l-0.635-1.274l2.545-0.635l0.639,2.545L132.994,182.841z M130.751,166.048
			c-0.818-2.254,0.575-4.828,3.111-5.748c2.536-0.92,5.256,0.16,6.074,2.414c0.818,2.254-0.575,4.828-3.111,5.748
			C134.288,169.383,131.569,168.302,130.751,166.048z M121.256,153.817c-1.943-4.275-0.491-9.116,3.244-10.814
			c3.735-1.698,8.338,0.391,10.281,4.665s0.491,9.116-3.244,10.814c-1.55,0.705-3.25,0.755-4.847,0.27l-0.38,0.854l-1.274,0.639
			h-1.274v-3.1C122.737,156.283,121.866,155.158,121.256,153.817z M110.082,169.472l1.271-0.635l0.635,1.271l-1.906,0.639V169.472z
			 M109.443,165.653l1.274-0.635l0.635,1.91h-1.271L109.443,165.653z M111.989,187.294l2.545,0.639l0.639,3.181l-0.639,1.274
			l-2.545-0.639l-1.274-2.545L111.989,187.294z M109.443,135.1l-0.635-1.271v-1.274h1.274l1.271,2.545H109.443z M111.352,138.283
			l-1.274,1.274l-0.635-0.639L111.352,138.283z M108.924,127.437c0-3.875,2.809-7.016,6.273-7.016c2.167,0,4.078,1.23,5.205,3.099
			l0.499,0.125l1.271,1.271v1.274l-0.838-0.209c0.089,0.47,0.137,0.956,0.137,1.456c0,2.466-1.14,4.631-2.86,5.882l0.381,1.145
			l-1.242-0.622c-0.78,0.389-1.642,0.611-2.551,0.611C111.733,134.454,108.924,131.312,108.924,127.437z M128.254,115.996
			c1.265-0.459,2.554-0.556,3.715-0.351l0.386-1.548l-1.906-2.545v-1.274l5.726,6.365l5.094,1.274l-1.91,0.635l-1.91,1.91
			l-1.614-1.936c0.019,0.048,0.044,0.092,0.061,0.141c0.594,1.637,0.114,3.445-1.102,4.87l0.109,0.11l-0.639,0.635v-0.194
			c-0.688,0.641-1.539,1.174-2.519,1.53c-3.257,1.182-6.678-0.014-7.643-2.67C123.139,120.29,124.997,117.178,128.254,115.996z
			 M127.901,98.183h-2.545l1.274-1.91l1.271,0.639V98.183z M138.253,113.322c-3.951,0-7.153-2.661-7.153-5.943
			c0-3.282,3.203-5.943,7.153-5.943c3.951,0,7.153,2.661,7.153,5.943C145.407,110.662,142.204,113.322,138.253,113.322z
			 M145.723,116.642l-1.274,0.639l-1.271-1.274L145.723,116.642z M132.355,103.277l-1.271-0.639v-1.271h1.271l0.639,1.271
			L132.355,103.277z M131.72,129.371V128.1h1.274l0.372,0.743c0.506-1.403,2.058-2.424,3.897-2.424c2.249,0,4.072,1.528,4.072,3.412
			c0,1.884-1.823,3.412-4.072,3.412c-2.249,0-4.072-1.527-4.072-3.412c0-0.156,0.017-0.309,0.041-0.46H131.72z M130.128,137.33
			l0.635-0.635l1.91,1.91v1.271l-1.91-0.635v-1.271L130.128,137.33z M129.669,131.152c0,1.459-1.281,2.641-2.861,2.641
			c-1.58,0-2.861-1.183-2.861-2.641c0-1.459,1.281-2.641,2.861-2.641c0.263,0,0.516,0.035,0.757,0.097l0.972-1.462l1.274,0.635
			v1.274h-1.268C129.227,129.538,129.669,130.296,129.669,131.152z M119.214,137.976c0-1.459,1.281-2.641,2.861-2.641
			c1.58,0,2.861,1.183,2.861,2.641c0,1.459-1.281,2.641-2.861,2.641c-0.854,0-1.618-0.347-2.143-0.895l-0.942,0.472l0.523-1.048
			C119.324,138.793,119.214,138.397,119.214,137.976z M124.72,135.1h-2.549l-0.635-1.271L124.72,135.1z M113.897,166.927h1.271
			l-0.635,1.274L113.897,166.927z M115.168,165.017v-1.274l1.274-0.635l0.635,1.274L115.168,165.017z M115.172,155.469v-1.271h3.184
			l-0.639,1.271H115.172z M119.309,168.202l2.548,0.635l0.635,1.274l-1.274,1.271h-1.91l-1.271-1.271L119.309,168.202z
			 M135.539,170.747l3.819,0.635v1.274l-0.635,1.271l-3.184-1.91V170.747z M144.449,134.465l0.639-1.274l0.635,0.639
			L144.449,134.465z M151.452,156.108h-0.635v-1.274L151.452,156.108z M153.362,158.651l0.635,0.639l0.635,1.271l-1.91,0.639
			l-1.91-1.91L153.362,158.651z M151.452,128.1l-1.274,1.271l-4.455-2.545l-6.364-3.181v-2.549l1.18,0.395
			c-0.017-0.116-0.029-0.234-0.029-0.355c0-1.459,1.281-2.641,2.861-2.641c1.58,0,2.861,1.183,2.861,2.641
			c0,1.171-0.827,2.163-1.97,2.509h1.46l5.094,2.545L151.452,128.1z M150.91,124.658c0-1.459,1.281-2.641,2.861-2.641
			c1.58,0,2.861,1.183,2.861,2.641c0,1.459-1.281,2.641-2.861,2.641C152.191,127.3,150.91,126.117,150.91,124.658z M150.178,96.274
			l-2.545-0.635l-1.274-2.545l1.274-0.639l2.545,2.549V96.274z M142.896,96.155l1.553-0.517l0.639,1.274l-2.549,3.181l-3.181,1.274
			l-0.604-3.632c-5.573,1.008-11.328-2.056-13.612-7.621c-1.24-3.022-1.233-6.237-0.22-9.058l-1.476-1.967l0.635-0.639h1.274
			l0.311,0.934c0.938-1.748,2.297-3.267,4.008-4.388l-0.5-1l6.364-1.91h2.545l0.6,1.196c3.913,0.807,7.393,3.525,9.049,7.559
			C150.098,86.601,147.932,93.069,142.896,96.155z M124.081,95.003h-1.91l0.639-0.639l0.635-1.271L124.081,95.003z M136.383,67.868
			c0-1.459,1.281-2.641,2.861-2.641c1.58,0,2.861,1.183,2.861,2.641s-1.281,2.641-2.861,2.641
			C137.664,70.51,136.383,69.327,136.383,67.868z M122.846,73.812c-4.862,0-8.804-3.548-8.804-7.924
			c0-4.376,3.942-7.924,8.804-7.924c0.566,0,1.118,0.05,1.654,0.142l0.22-0.658l0.926,0.928c3.489,1.053,6.005,4.017,6.005,7.513
			C131.65,70.264,127.708,73.812,122.846,73.812z M130.767,38.986l0.635,0.635v1.274l-1.274-1.274L130.767,38.986z M129.81,49.172
			l0.639,1.274l-0.639,0.635V49.172z M130.109,53.671c0,1.459-1.281,2.641-2.861,2.641c-1.58,0-2.861-1.183-2.861-2.641
			c0-1.459,1.281-2.641,2.861-2.641C128.828,51.03,130.109,52.212,130.109,53.671z M127.263,37.714l0.639-0.635l0.635,1.271
			L127.263,37.714z M127.265,32.623h1.274l-1.91,1.274L127.265,32.623z M126.187,41.257c1.251,3.231,0.129,6.677-2.507,7.698
			c-2.636,1.021-5.786-0.771-7.037-4.002c-1.251-3.231-0.129-6.677,2.507-7.698C121.786,36.235,124.936,38.026,126.187,41.257z
			 M115.172,38.353l-0.635-2.545l1.91,0.635l0.635,1.91l-0.635,0.635L115.172,38.353z M120.265,33.259l-1.91-0.635l1.271-1.274
			L120.265,33.259z M111.447,23.637c2.548-1.336,5.775-0.203,7.208,2.53c1.433,2.733,0.529,6.032-2.019,7.368
			c-2.548,1.336-5.775,0.203-7.208-2.53C107.995,28.272,108.899,24.973,111.447,23.637z M106.898,28.804l1.274,1.274l-0.639,0.635
			l-0.635-0.635V28.804z M96.298,59.806c-3.212-2.242-5.29-5.43-6.025-8.724h-0.558l0.333-1.333
			c-0.292-2.612,0.271-5.22,1.798-7.409c3.646-5.225,11.422-6.122,17.548-2.102l0.049,0.025l-0.005,0.005
			c0.113,0.074,0.226,0.147,0.337,0.225c2.965,2.069,4.963,4.945,5.832,7.966l0.839-0.56v-1.91l0.635,1.91l1.274,0.639l-0.639,0.635
			h-1.926c0.499,2.199,0.4,4.446-0.363,6.492l0.38-0.127l1.91,1.274v1.271l-0.635,1.274l-2.545-0.635l-0.224-0.892
			c-0.029,0.043-0.055,0.087-0.085,0.13c-2.323,3.329-6.323,4.902-10.504,4.566l-0.008,0.016l-1.274,1.271l-3.181-0.635l0.396-1.586
			C98.503,61.147,97.372,60.556,96.298,59.806z M96.078,93.093h-1.274l-1.274-0.639l1.65-0.549
			c-2.237-2.032-3.589-4.658-3.589-7.528c0-1.07,0.192-2.106,0.543-3.091l-1.149-0.287l-1.271-2.549l2.545-1.271l1.53,1.148
			c1.151-1.455,2.704-2.7,4.541-3.646l-0.342-0.686l1.91-0.635l0.182,0.546c2.021-0.764,4.294-1.195,6.699-1.195
			c1.363,0,2.682,0.14,3.939,0.399v-3.569h-1.274l-1.271,1.274l-0.639,1.271l-1.649-1.649c-0.392,0.186-0.835,0.294-1.307,0.294
			c-1.58,0-2.861-1.183-2.861-2.641c0-1.459,1.281-2.642,2.861-2.642c1.025,0,1.922,0.499,2.427,1.247l1.168-0.973l3.181,0.635
			l0.635,1.91v0.639l3.12,5.719c4.129,2.085,6.858,5.674,6.858,9.753c0,6.443-6.8,11.666-15.187,11.666
			c-4.364,0-8.295-1.416-11.065-3.68L96.078,93.093z M104.797,101.656c0,1.459-1.281,2.641-2.861,2.641s-2.861-1.183-2.861-2.641
			s1.281-2.641,2.861-2.641S104.797,100.197,104.797,101.656z M89.059,122.677c0-4.103,3.806-7.429,8.502-7.429
			c0.581,0,1.149,0.051,1.698,0.148v-4.484l-1.271-2.545h2.545l1.91,3.82l-1.564,3.649c1.636,0.606,3.008,1.648,3.93,2.958
			l1.454-0.242l1.625-1.896c-1.015-0.543-1.873-1.295-2.501-2.258c-1.919-2.942-1.205-7.032,1.45-10.485h-1.213l1.274-6.365
			l2.693,3.59c0.406-0.321,0.83-0.63,1.276-0.921c5.707-3.724,12.506-3.413,15.187,0.695c2.68,4.108,0.227,10.457-5.481,14.181
			c-3.025,1.974-6.358,2.814-9.221,2.556v3.449l-5.634-0.511c0.223,0.664,0.344,1.365,0.344,2.092c0,2.336-1.234,4.418-3.163,5.78
			l-1.731,3.462l-1.271,0.635v-2.735c-0.743,0.185-1.526,0.287-2.337,0.287C92.866,130.106,89.059,126.78,89.059,122.677z
			 M94.672,144.139c-1.58,0-2.861-1.183-2.861-2.641c0-0.807,0.393-1.529,1.012-2.014l-1.202-1.199l2.495,0.622
			c0.18-0.033,0.366-0.051,0.557-0.051c1.58,0,2.861,1.183,2.861,2.641C97.534,142.956,96.253,144.139,94.672,144.139z
			 M95.124,159.606l-0.639,0.639v1.271l-1.271-1.271l0.635-1.274L95.124,159.606z M94.804,148.469l-1.274,0.635h-1.271v-1.91
			l1.91-0.635L94.804,148.469z M98.624,146.878v1.906l-1.271-1.271L98.624,146.878z M95.124,150.377l3.819,3.82l1.271,2.545
			l-2.545-0.635l-2.545-4.455V150.377z M96.714,156.743v1.91l-1.274-1.274L96.714,156.743z M96.075,165.339l2.549,0.635
			l-1.274,1.271h-1.274V165.339z M98.304,161.835l-0.635-1.274l0.635-0.635l0.639-1.274h1.271l0.639,1.274l-1.274,1.91H98.304z
			 M99.898,140.194l2.545-1.91h1.271v1.91H99.898z M103.078,137.01l0.447-1.345c-0.882-0.45-1.48-1.317-1.48-2.313
			c0-1.459,1.281-2.641,2.861-2.641c0.184,0,0.364,0.018,0.539,0.048l-0.458-0.114l0.635-1.274l1.274,0.639l0.635,1.271l-1.69-0.422
			c1.12,0.358,1.926,1.338,1.926,2.494c0,1.459-1.281,2.641-2.861,2.641c-0.056,0-0.111-0.005-0.167-0.008l-0.388,0.388
			L103.078,137.01z M90.669,154.833h3.18v1.274l-1.91,0.635l-1.271-0.635V154.833z M92.257,196.844h-1.274v-1.274h1.274V196.844z
			 M92.896,190.474l-0.639,1.274l-0.635-2.545h1.274V190.474z M96.188,184.12l-4.25-0.327l0.635-1.274l3.296,0.366
			c-0.171-1.972,1.156-3.968,3.325-4.756c2.308-0.838,4.764-0.014,5.804,1.839l0.625-0.313l-0.515,0.515
			c0.059,0.12,0.113,0.244,0.16,0.373c0.818,2.254-0.575,4.828-3.111,5.748C99.715,187.179,97.108,186.206,96.188,184.12z
			 M104.988,201.935l-1.274-0.635l0.639-1.274l1.271,1.274L104.988,201.935z M102.816,196.086c-1.58,0-2.861-1.183-2.861-2.641
			c0-1.459,1.281-2.641,2.861-2.641s2.861,1.183,2.861,2.641C105.678,194.904,104.397,196.086,102.816,196.086z M102.816,175.065
			c-1.58,0-2.861-1.183-2.861-2.641s1.281-2.641,2.861-2.641s2.861,1.183,2.861,2.641S104.397,175.065,102.816,175.065z
			 M103.714,152.924l-0.635-1.274v-1.271l2.545,0.635l0.639,2.545L103.714,152.924z M105.625,139.873l1.274-1.271l1.271,0.635
			l-1.271,1.274L105.625,139.873z M111.07,148.761c2.249,0,4.072,2.759,4.072,6.163c0,2.181-0.751,4.093-1.88,5.189v1.085h-1.274
			l-0.353-0.177c-0.185,0.039-0.373,0.066-0.565,0.066c-2.249,0-4.072-2.759-4.072-6.163S108.821,148.761,111.07,148.761z
			 M111.621,214.576c-0.655,0-1.257-0.205-1.739-0.547h-1.074l0.679-0.339c-0.451-0.467-0.728-1.08-0.728-1.755
			c0-1.459,1.281-2.641,2.861-2.641c1.58,0,2.861,1.183,2.861,2.641C114.482,213.393,113.201,214.576,111.621,214.576z
			 M114.536,200.025l-1.274,0.635l-0.635-1.271l-2.545-1.274l1.906-3.181l3.819,0.635L114.536,200.025z M116.446,210.209h-1.274
			l1.274-0.635V210.209z M116.125,178.702l2.938,0.586c0.411-0.538,0.927-1.037,1.538-1.462c2.437-1.695,5.456-1.571,6.741,0.278
			c1.286,1.849,0.352,4.722-2.085,6.417c-2.437,1.695-5.456,1.571-6.741-0.278c-0.519-0.746-0.671-1.659-0.514-2.594l-0.602-0.402
			L116.125,178.702z M128.539,187.931l-0.639,1.91h-1.271l0.635-2.545L128.539,187.931z M117.894,196.306
			c0-1.459,1.281-2.641,2.861-2.641c1.58,0,2.861,1.183,2.861,2.641c0,1.459-1.281,2.641-2.861,2.641
			C119.175,198.948,117.894,197.765,117.894,196.306z M122.81,201.935v1.274l-3.184,0.635l-0.635-0.635v-1.274l2.545-0.635
			L122.81,201.935z M120.262,218.031v-1.274l-1.271,0.635l1.271-1.271l3.819,3.82h-2.545L120.262,218.031z M126.478,231.029
			c-1.58,0-2.861-1.183-2.861-2.641c0-0.621,0.234-1.19,0.622-1.641l-2.067-2.07l3.184,0.639l0.274,0.548
			c0.268-0.077,0.553-0.118,0.848-0.118c1.58,0,2.861,1.183,2.861,2.641S128.058,231.029,126.478,231.029z M132.675,235.15
			l-1.274-0.639l0.635-1.271h1.274L132.675,235.15z M133.521,217.052c-0.763,0-1.486-0.113-2.141-0.313l0.655,0.654l-1.91,0.639
			l0.521-1.566c-1.449-0.648-2.409-1.768-2.409-3.045c0-2.006,2.365-3.632,5.283-3.632c1.245,0,2.388,0.298,3.291,0.794v-0.055
			l2.548,0.635l2.545-1.271l-1.274,2.545l-1.886,0.471c0.035,0.168,0.059,0.338,0.059,0.513
			C138.804,215.426,136.439,217.052,133.521,217.052z M141.005,223.381c-1.58,0-2.861-1.183-2.861-2.641
			c0-1.459,1.281-2.641,2.861-2.641s2.861,1.183,2.861,2.641C143.866,222.198,142.585,223.381,141.005,223.381z M144.772,199.388
			l-0.639-0.635l1.274-2.545h2.545l-0.635,2.545L144.772,199.388z M147.631,211.482l-0.635-0.635l1.91-1.91l0.635,1.91
			L147.631,211.482z M149.542,205.119l-0.635-1.274h1.271l0.639,1.274H149.542z M148.907,169.472v-1.91h3.18l1.91,2.545v1.274
			l-2.545,0.635L148.907,169.472z M155.862,199.058c-1.58,0-2.861-1.183-2.861-2.641c0-1.459,1.281-2.641,2.861-2.641
			c1.58,0,2.861,1.183,2.861,2.641C158.723,197.875,157.442,199.058,155.862,199.058z M160.999,188.886l-5.729-0.635l1.271-1.91
			l3.819-0.635l1.274,0.635L160.999,188.886z M164.816,172.656v-1.274l1.274,0.635L164.816,172.656z M162.906,163.743l0.328,0.982
			c0.037-0.002,0.073-0.005,0.111-0.005c1.58,0,2.861,1.183,2.861,2.641c0,1.459-1.281,2.641-2.861,2.641
			c-1.58,0-2.861-1.183-2.861-2.641c0-1.067,0.687-1.984,1.673-2.401L161,164.382l-0.639-1.274l1.274-0.635L162.906,163.743z
			 M159.726,153.559l1.274,0.639v1.271l-1.91-0.635l-1.274-0.635L159.726,153.559z M157.495,156.741l-1.91,0.639l0.635-1.274
			L157.495,156.741z M160.361,141.465l0.639,1.274l-0.639,0.635l-1.91-1.271l-1.271-2.549L160.361,141.465z M154.982,137.535
			c-1.58,0-2.861-1.183-2.861-2.641c0-1.459,1.281-2.641,2.861-2.641c1.58,0,2.861,1.183,2.861,2.641
			C157.843,136.353,156.562,137.535,154.982,137.535z M156.542,119.826l0.639-1.274l0.635,0.635L156.542,119.826z M157.104,113.519
			c0.818,2.254-0.575,4.827-3.111,5.748c-2.536,0.921-5.256-0.16-6.074-2.414c-0.781-2.151,0.455-4.589,2.773-5.608l0.124-0.332
			l0.251,0.18C153.594,110.196,156.29,111.276,157.104,113.519z M157.733,96.594c-3.465,0-6.273-2.291-6.273-5.118
			c0-2.436,2.088-4.471,4.883-4.987l0.199-0.399v-2.545h1.274l1.274,1.274v1.663c2.811,0.507,4.915,2.548,4.915,4.994
			C164.006,94.302,161.197,96.594,157.733,96.594z M168.953,65.403v1.271l-1.271,1.274l-0.639-0.635l-0.635-1.91H168.953z
			 M164.514,75.816c1.534,1.152,2.148,3.005,1.595,4.461l2.526,0.723l1.274,2.545v1.274L168,86.725l-3.184,0.639l-1.271-4.455
			h-1.274l0.435-0.725c-0.778-0.078-1.579-0.378-2.289-0.912c-0.412-0.309-0.755-0.671-1.03-1.06l-0.297,0.148l-0.639-0.635
			l0.345-0.688c-0.325-1.027-0.212-2.105,0.412-2.937C160.341,74.592,162.716,74.465,164.514,75.816z M162.161,61.512
			c2.392,3.934,0.341,9.55-4.581,12.544c-0.698,0.424-1.416,0.77-2.141,1.046l-0.168,0.168l-1.91,1.274l-3.819,0.635l-1.274-1.274
			v-0.499c-1.647-0.553-3.038-1.581-3.933-3.053c-2.392-3.934-0.341-9.55,4.581-12.543
			C153.839,56.816,159.769,57.578,162.161,61.512z M157.403,37.162c-1.58,0-2.861-1.183-2.861-2.641s1.281-2.641,2.861-2.641
			c1.58,0,2.861,1.183,2.861,2.641S158.983,37.162,157.403,37.162z M144.449,149.104l-0.064,0.016
			c-1.273-0.105-2.433-0.52-3.365-1.151l-0.387-0.775l-0.381,0.153c-0.903-0.863-1.457-1.972-1.495-3.188l1.876,1.125l3.816,0.639
			V149.104z M148.907,116.006l1.785-4.762c0.111-0.049,0.222-0.098,0.338-0.14c0.013-0.005,0.025-0.007,0.038-0.012l4.203,3.004
			l-0.639,1.274l-3.816,1.271l-0.639-0.635H148.907z M136.812,212.437v-1.855c1.029,0.564,1.74,1.387,1.933,2.326l-0.659,0.165
			L136.812,212.437z"/>
		<g>
			<polygon class="st2" points="23.007,90.732 23.007,88.655 21.622,89.348 			"/>
			<polygon class="st2" points="11.911,83.105 13.3,82.413 12.608,81.717 			"/>
			<path class="st2" d="M46.797,92.518c1.97-3.323,15.197-12.603,14.119-15.379c0.233,0.6-11.871,5.146-10.999,7.722
				c1.008,2.98-7.129,8.663-7.168,12.281C42.727,99.208,47.851,90.537,46.797,92.518z"/>
			<polygon class="st2" points="33.41,81.025 35.491,83.105 36.183,81.025 36.183,79.64 34.103,79.64 			"/>
			<polygon class="st2" points="20.234,69.929 21.622,71.317 23.007,69.929 23.703,68.54 23.703,65.075 22.315,64.382 			"/>
			<polygon class="st2" points="52.132,68.54 52.828,70.621 54.213,70.621 53.521,69.236 			"/>
			<path class="st2" d="M53.064,126.786c1.754-1.332,7.404-2.539,8.493-3.878c-0.388,0.476-7.92,1.704-9.354,2.647
				c-2.37,1.56-7.249,5.574-7.249,8.796C44.954,133.328,51.935,127.664,53.064,126.786z"/>
			<path class="st2" d="M31.842,114.562c-1.16,0-2.487,5.105-2.44,5.847c0.073,1.136,1.409-1.073,2.493-3.142
				c-0.145,0.177-0.312,0.359-0.506,0.546c0.484-0.951,0.86-1.677,1.145-2.215C32.475,115.218,32.244,114.873,31.842,114.562z"/>
			<polygon class="st2" points="72.247,29.014 73.631,29.014 72.247,27.625 			"/>
			<polygon class="st2" points="44.158,67.447 43.465,70.223 46.238,70.223 48.319,68.143 45.546,66.754 			"/>
			<polygon class="st2" points="51.094,6.091 52.482,6.091 51.094,4.707 			"/>
			<polygon class="st2" points="33.755,40.112 34.451,39.415 33.062,38.723 32.37,40.112 33.755,41.496 			"/>
			<polygon class="st2" points="41.733,42.883 41.037,44.271 42.425,43.575 			"/>
			<polygon class="st2" points="66.005,167.712 67.389,166.327 66.005,165.631 			"/>
			<polygon class="st2" points="71.204,103.217 71.204,101.832 69.124,100.444 69.124,101.832 69.816,103.217 			"/>
			<polygon class="st2" points="76.06,137.545 74.672,138.237 73.979,139.626 75.364,139.626 			"/>
			<path class="st2" d="M58.724,52.34c-0.055,0.001-0.156-0.015-0.298-0.047C58.568,52.352,58.662,52.362,58.724,52.34z"/>
			<path class="st3" d="M58.769,52.33c-0.009,0.009-0.032,0.005-0.045,0.01"/>
			<path class="st2" d="M13.271,108.87c0.804-0.343,1.44-0.699,1.823-1.069c-0.699,0.183-1.401,0.35-2.106,0.505L13.271,108.87z"/>
			<path class="st2" d="M3.181,51.501v2.918c1.664-1.305,3.723-2.734,5.973-4.8C9.352,49.436,5.006,50.92,3.181,51.501z"/>
			<polygon class="st2" points="45.198,6.21 45.198,7.514 45.71,5.985 			"/>
			<path class="st2" d="M65.749,1.094l-7.701,0.48L46.979,5.426l-0.585,0.257l0.884,0.442l-0.692,2.081l-2.773-0.692l-0.157-0.626
				l-5.018,2.208l2.054,1.542h1.388l-0.696,1.388l-2.773,1.385l-2.773-0.692v-1.388l1.385-1.385l0.146-0.291l-2.423,1.066
				l-3.898,3.031c1.188,0.458,2.52,0.753,3.072,0.818c-0.967,0.171-8.03,1.698-6.261,3.254c0.888,0.781,3.643,0.227,4.408,1.06
				c0.689,0.75-15.977,7.396-15.987,7.647c-0.021,0.549,1.677,3.35,2.301,3.982c-0.777-0.621-2.977-1.917-4.286-1.705l-0.66,0.942
				c0.758,2.007,6.375,7.397,6.78,7.397c-0.338,0-5.026-1.497-9.96-2.856l-1.02,1.457l-1.327,4.78
				c2.961,0.777,6.498,1.615,8.615,1.794l-0.652-0.13L15.38,40.11l1.388-0.696l2.773,2.081v1.388l-2.475-0.494
				c-0.952,0.023-2.006,0.064-2.158,1.011c0.069-0.428,2.825-0.236,6.35,0.146l-0.332-0.663l4.857-1.388l0.692,0.696l-0.629,1.891
				c4.883,0.592,9.738,1.207,10.593,0.954c-4.072,1.206-8.629,0.651-13.117,0.218l2.461-0.982l0.063-0.19
				c-1.571-0.19-3.144-0.379-4.589-0.535l0.796,1.59c0.422,0.037,0.845,0.076,1.268,0.117l-1.008,0.402l-0.26-0.52
				c-3.253-0.286-6.443-0.412-9.356,0.349c3.766-0.984-2.081-0.964-3.429-0.421c-1.512,0.609-2.917,1.313-4.254,2.108l-0.653,1.415
				c3.946-1.459,12.152-0.412,13.218-0.283c2.161,0.262,4.77,3.726,6.521,4.159c6.106,1.511,12.57-7.44,18.862-3.317
				c1.87,1.225,14.766,4.362,15.127,5.565c-1.8-5.997-16.977-4.335-18.825-9.071c-0.02-0.052,16.547,6.05,19.16,6.651
				c-1.487-0.617-7.215-5.509-13.089-10.657l-0.139,0.555l-1.385-0.696l0.416-0.831c-6.799-5.976-13.448-11.957-13.598-11.715
				c-0.413,0.668,1.629,5.907,1.088,5.842c-1.351-0.163-5.191-5.152-7.216-6.653l-4.961,4.342l-0.696-2.773l1.388-1.388h1.388
				l0.692-2.773l2.081-0.692l0.534,2.139c4.188-1.872,9.62-2.126,13.782-4.564c3.927-2.301,7.522-5.265,10.34-8.853
				C54.589,6.526,62.006,2.551,71.005,2.004c1.819-0.111,3.724,0.155,5.653,0.659V0.701l-0.321-0.088l-5.776,0.961h-3.849
				L65.749,1.094z M41.733,42.883l0.692,0.692l-1.388,0.696L41.733,42.883z M33.062,38.723l1.388,0.692l-0.696,0.696v1.385
				l-1.385-1.385L33.062,38.723z M51.094,6.091V4.707l1.388,1.385H51.094z"/>
			<path class="st2" d="M1.736,70.463v4.752L2.7,82.916l1.924,8.665l0.503,1.005c-0.392-1.985-0.764-3.736-0.535-4.06
				c1.671-2.367,3.53,0.593,2.024-5.488C5.506,78.554,3.515,74.618,1.736,70.463z"/>
			<path class="st2" d="M76.658,177.34c-3.133-2.873-6.99-5.901-6.976-6.412c0.015-0.569,9.842,2.735,2.593-3.409
				c-4.014-3.402-12.004-6.219-14.722-10.641c2.056,3.345,13.472,3.03,4.404-3.768c-4.811-3.607-12.655-6.635-15.64-12.212
				c-2.31-4.316,4.607-10.237,7.222-12.28c2.245-1.754,15.803-6.394,16.948-2.973c-0.334-0.998-2.18-2.409-3.047-3.075
				c0.428,0.147,4.343,1.086,3.892,0.073c-1.952-4.384-17.069-14.763-21.868-14.701c0.818-0.01,9.48,5.52,11.846,8.119
				c-2.786-2.606-14.461-6.577-17.17-7.504c1.605-1.716,3.108-3.501,4.537-5.341h-1.399v-2.081h0.696l1.818,0.608
				c1.933-2.596,3.737-5.288,5.476-8.044c0.026,0.7,0.645,4.642,1.438,4.642c1.177,0,2.032-1.12,2.787-2.842l-1.811-0.606v-1.385
				l2.081,0.692v0.649c2.398-6.076,4.013-17.93,12.559-17.656c1.351,0.043,2.842,0.181,4.337,0.458V74.64
				c-4.467-0.518-10.441-2.831-14.62-3.947c5.123-6.459,6.722-5.296,12.817,0.184c-0.253-0.209,0.79,0.818,1.802,1.866v-2.346
				c-6.487-2.381-9.031-11.008-5.571-16.572c-0.062,0.1,1.009,6.14,2.122,5.85c0.805-0.21,2.489-3.118,3.45-5.239V44.237
				l-0.947,1.419l-1.388-0.692l1.388-1.388h0.947V24.212c-3.99,2.413-8.112,5.586-8.112,7.29c0,0.916,4.958-0.008,5.354,0.085
				c-1.19-0.277-14.201,10.166-14.201,11.44c0,2.494,3.195,1.615,6.306,0.16v-2.385l0.692-0.692l1.388,0.692l-0.386,1.538
				c1.803-0.955,3.353-1.931,3.914-2.304c-3.096,6.139-9.263,9.976-12.651,16.119c-3.6,6.528-1.708,8.163,3.622,3.031
				c-0.909,2.776-1.652,11.763-5.053,9.504c-0.886-0.589-16.994-10.795-17.006-8.235c-0.007,1.495,2.162,2.846,3.643,3.99
				c-2.6-1.657-6.332,0.156-8.06,1.974c-1.776,1.869-8.249-1.55-8.719,2.714c-0.251,2.282,13.923,4.338,16.769,5.085
				c-9.544,7.935,10.509,2.468,12.33,2.768c-1.367-0.225-10.152,7.452-11.45,9.552c-1.652,2.672-2.025,6.346-3.648,9.222
				c-0.975-2.376-4.742-19.757-7.245-19.116c-1.954,0.501-1.953,5.028-1.827,6.582c-1.189-2.877-9.468-25.437-10.974-25.437
				c-0.276,0-0.459,0.465-0.579,1.165l0.855,0.569v1.388l-1.043,0.26c-0.061,1.848,0.025,3.861,0.04,4.359
				c-1.848-3.703-5.606-14.377-10.329-14.377c-1.708,0,2.951,12.601,2.726,12.566c-4.295-0.663-6.94-1.764-2.633,3.746
				c0.891,1.14,9.607,13.179,9.886,13.179c-1.163,0-13.653-10.705-13.653-6.267c0,1.703,5.235,3.233,5.584,5.582
				c0.355,2.394-5.369,1.67-0.381,5.424c1.059,0.797,10.017,4.751,9.978,4.989c-0.512,3.084-4.618,3.839,1.44,5.808
				c2.974,0.967,6.101,1.577,9.18,2.094c2.661,0.447,5.348,0.083,7.824,1.258c4.384,2.08,1.994-1.47,5.164-1.857
				c-2.968,0.363-6.236,19.154-5.465,21.596c-0.585-1.485-2.323-9.777-2.883-9.189c-1.199,1.26-1.247,5.44-1.405,6.803
				l-2.485,10.583c-0.363-0.225-0.16-6.371-0.378-11.986c-0.077,0.162-0.161,0.336-0.25,0.518c-0.055,0.389-0.27,0.811-0.642,1.265
				c0.23-0.439,0.449-0.872,0.642-1.265c0.019-0.139,0.018-0.273-0.003-0.403c-0.285,0.538-0.662,1.264-1.145,2.215
				c0.194-0.187,0.36-0.369,0.506-0.546c-1.084,2.069-2.42,4.278-2.493,3.142c-0.048-0.742,1.28-5.847,2.44-5.847
				c0.402,0.311,0.632,0.656,0.693,1.036c0.089-0.167,0.168-0.314,0.239-0.446c-0.266-6.315-1.094-11.792-3.911-7.134
				c-2.403,3.974-2.629,8.479-3.841,12.83c-0.414,1.486-0.915,1.453-1.489,1.584l3.309,4.137c0.51-2.103,1.612-3.898,4.152-3.898
				c0.788,0-0.766,8.11,1.785,8.11c3.544,0,2.68-6.337,3.781-8.223c-0.572,0.98,2.322,2.666,3.665,1.76
				c1.202-0.811,1.473-4.135,1.656-5.276c0.226-1.414,1.537-9.947,0.645-10.839c5.648,5.648,15.342,7.156,21.225,12.94
				c-13.879-0.495-18.299,10.075-24.51,19.615l1.196,1.096c0.388-0.576,0.772-1.172,1.146-1.809c0.362,1.445,0.574,2.826,0.62,4.171
				l4.082,5.786l1.339-0.668l0.692,0.692l1.256,2.508l2.217,1.611l0.569,0.736h0.12v0.155l7.492,9.698l5.296,5.296l1.925,2.886
				l4.332,3.852l4.815,5.862c0.106,0.006,0.212,0.012,0.319,0.018V177.34z M72.247,29.014v-1.388l1.385,1.388H72.247z
				 M46.238,70.223h-2.773l0.692-2.777l1.388-0.692l2.773,1.388L46.238,70.223z M52.828,70.621l-0.696-2.081l1.388,0.696
				l0.692,1.385H52.828z M11.911,83.105l0.696-1.388l0.692,0.696L11.911,83.105z M23.007,90.732l-1.385-1.385l1.385-0.692V90.732z
				 M23.703,68.54l-0.696,1.388l-1.385,1.388l-1.388-1.388l2.081-5.546l1.388,0.692V68.54z M36.183,81.025l-0.692,2.081
				l-2.081-2.081l0.692-1.385h2.081V81.025z M42.749,97.142c0.039-3.619,8.177-9.302,7.168-12.281
				c-0.872-2.576,11.232-7.122,10.999-7.722c1.079,2.777-12.149,12.056-14.119,15.379C47.851,90.537,42.727,99.208,42.749,97.142z
				 M52.203,125.555c1.434-0.944,8.966-2.171,9.354-2.647c-1.089,1.338-6.739,2.546-8.493,3.878c-1.129,0.878-8.11,6.543-8.11,7.566
				C44.954,131.129,49.833,127.115,52.203,125.555z M66.005,167.712v-2.081l1.385,0.696L66.005,167.712z"/>
			<path class="st2" d="M60.997,108.46c2.402,0.268,9.417-1.089,11.751-2.098c0.472-0.204,2.169-1.655,3.91-3.02v-5.927
				l-1.291,1.294h-1.388l-0.692-1.388l2.081-2.081l1.291,0.645V91.62c-0.152,0.012-0.292,0.024-0.405,0.034
				c-3.389,0.319-22.688,11.058-20.009,13.158c1.822,1.428,4.877-1.268,6.587-1.648C64.19,102.863,59.294,108.27,60.997,108.46z
				 M69.124,100.444l2.081,1.388v1.385h-1.388l-0.692-1.385V100.444z"/>
			<path class="st2" d="M76.658,22.179c-0.138,0.138-0.266,0.271-0.371,0.39c0.119-0.01,0.244-0.027,0.371-0.047V22.179z"/>
			<path class="st2" d="M76.658,10.374v-3.13C74.474,7.58,75.139,8.882,76.658,10.374z"/>
			<polygon class="st2" points="46.392,150.152 46.496,150.3 47.382,150.944 			"/>
			<path class="st2" d="M71.28,158.596c2.338,0.804,3.996-6.105,5.378-11.993V126.11l-1.989,0.397l1.989-1.49v-16.143
				c-0.364,0.578-0.654,1.091-0.809,1.491c-1.956,5.048-2.281,10.459-4.593,15.419c-1.673,3.589-7.64,8.435-7.647,12.374
				c-0.003,1.638,7.886-2.308,7.886-2.484c0,1.151-6.77,13.541-4.766,13.541c0.975,0,2.998-1.505,3.733-2.187
				C70.45,148.846,69.469,157.973,71.28,158.596z M74.672,138.237l1.388-0.692l-0.696,2.081h-1.385L74.672,138.237z"/>
			<path class="st2" d="M25.442,97.604c-4.619,0-7.787,7.068-10.352,13.925l3.671,3.06c0.705-1.924,1.86-3.996,2.862-5.808v-0.711
				h0.392c0.88-1.605,1.559-2.94,1.559-3.68c0-1.203-6.356,5.536-5.683,6.209C16.698,109.407,26.127,97.604,25.442,97.604z"/>
			<path class="st2" d="M76.658,69.414v-2.965c-2.442-2.309-4.423-3.946-5.258-4.197C72.712,62.68,74.891,67.077,76.658,69.414z"/>
			
				<rect x="3.328" y="56.958" transform="matrix(0.7071 0.7071 -0.7071 0.7071 41.8861 13.7805)" class="st2" width="1.963" height="0.979"/>
			<polygon class="st2" points="4.285,62.994 5.673,63.686 5.673,62.302 4.285,61.606 			"/>
			<path class="st2" d="M18.444,42.181c-0.27,0.179-0.884,0.211-1.719,0.14l0.342,0.068C17.632,42.375,18.161,42.368,18.444,42.181z
				"/>
			<path class="st2" d="M23.438,27.761c0.22-0.134,0.594,0.027,1.065,0.376l0.585-0.512l-0.158-0.634
				C24.413,27.222,23.912,27.473,23.438,27.761z"/>
			<polygon class="st2" points="20.026,117.989 20.026,118.052 20.468,118.936 21.622,117.782 20.926,117.086 			"/>
			<polygon class="st2" points="23.069,18.933 23.007,19.302 25.784,18.61 25.784,17.222 25.619,17.002 24.838,17.457 			"/>
			<polygon class="st2" points="30.637,99.751 28.557,100.444 28.557,101.832 31.33,101.136 			"/>
			<polygon class="st2" points="38.96,102.524 38.96,100.444 37.572,99.751 36.879,101.136 37.572,102.524 			"/>
			<polygon class="st2" points="41.037,53.286 40.345,53.979 41.037,55.367 42.425,55.367 43.814,53.286 43.118,51.898 
				41.733,51.898 			"/>
			<polygon class="st2" points="44.506,28.318 45.894,29.014 47.279,27.625 45.894,26.933 			"/>
			<polygon class="st2" points="53.523,30.748 55.603,30.052 56.988,29.36 55.603,27.975 52.134,27.279 			"/>
			<polygon class="st2" points="47.975,26.933 49.359,26.237 48.667,25.545 			"/>
			<polygon class="st2" points="49.707,118.824 47.627,118.128 48.323,119.516 49.015,120.209 			"/>
			<polygon class="st2" points="64.614,11.329 61.841,12.022 61.149,14.795 65.307,12.022 			"/>
			<polygon class="st2" points="63.23,23.118 62.537,21.729 59.068,21.037 56.296,22.425 63.23,25.198 			"/>
			<polygon class="st2" points="51.44,135.812 52.828,135.116 51.44,133.732 			"/>
			<polygon class="st2" points="52.828,19.998 52.828,20.691 54.213,21.383 54.909,20.691 			"/>
			<polygon class="st2" points="54.213,60.221 54.909,58.833 53.521,58.14 52.828,58.833 			"/>
			<polygon class="st2" points="54.213,131.651 53.521,133.039 54.213,133.732 55.601,132.343 			"/>
			<polygon class="st2" points="58.374,31.094 57.682,32.479 58.374,33.867 60.455,32.479 			"/>
			<polygon class="st2" points="72.247,13.756 72.939,15.141 75.02,15.837 75.712,15.141 72.939,12.368 			"/>
			<polygon class="st2" points="58.376,143.093 58.376,141.705 55.603,138.932 52.827,138.239 54.215,139.624 54.215,143.093 			"/>
		</g>
		<g>
			<polygon class="st2" points="242.158,36.581 239.793,35.99 239.793,37.175 240.974,37.175 			"/>
			<polygon class="st2" points="232.695,28.301 231.511,27.711 230.92,28.301 232.101,30.076 			"/>
			<polygon class="st2" points="225.596,27.711 225.596,31.851 226.187,31.851 			"/>
			<polygon class="st2" points="248.073,40.724 246.889,41.905 246.889,42.495 248.663,43.089 			"/>
			<polygon class="st2" points="225.596,14.697 225.006,12.923 224.412,14.697 225.006,15.288 			"/>
			<polygon class="st2" points="227.962,113.476 227.962,114.66 231.511,112.886 230.92,111.111 			"/>
			<path class="st2" d="M249.847,59.652l-1.775-1.775l-0.798,0.796c-0.108-0.93-0.205-1.764-0.262-2.415
				c-0.2-2.311-0.645-4.763-1.376-7.15l2.436,0.486l-0.59-1.181l-1.775-0.594l-0.295,0.588c-1.567-4.717-4.288-9.096-8.517-11.509
				c-4.5-2.661-9.645-2.855-14.083-6.032c-5.074-3.402-10.082-6.908-15.182-10.27c0.577,4.135,9.261,9.428,12.91,11.385
				c4.763,2.218,11.511,2.647,15.533,6.115c3.605,3.034,5.406,6.938,6.571,11.15l-0.487-0.243l-1.184,0.59l-0.59,1.184l1.181,1.775
				h1.775v-0.461c1.205,5.555,1.782,11.416,4.193,16.396c0.573-1.513,0.277-5.04-0.065-8.13l2.38,0.475V59.652z"/>
			<polygon class="st2" points="228.555,41.905 229.736,41.314 230.33,39.54 228.555,39.54 			"/>
			<polygon class="st2" points="205.485,19.428 204.895,20.612 206.669,20.612 206.079,18.837 			"/>
			<polygon class="st2" points="225.006,43.089 225.596,44.27 226.781,44.27 227.371,41.905 226.187,41.905 			"/>
			<polygon class="st2" points="194.841,77.986 193.657,77.395 193.066,79.761 194.841,79.17 			"/>
			<polygon class="st2" points="224.412,16.472 224.412,17.653 222.047,19.428 225.006,18.837 			"/>
			<polygon class="st2" points="186.558,115.251 187.152,114.66 186.558,114.067 			"/>
			<polygon class="st2" points="183.603,93.958 183.603,95.139 184.784,95.733 185.377,95.139 184.784,93.958 			"/>
			<polygon class="st2" points="208.444,66.157 209.034,67.341 210.809,65.566 209.628,65.566 			"/>
			<polygon class="st2" points="209.034,73.846 209.628,74.436 210.809,73.846 209.628,72.662 			"/>
			<polygon class="st2" points="207.26,77.395 207.26,79.761 206.669,80.945 207.26,82.126 209.628,81.535 209.628,78.58 
				208.444,77.395 			"/>
			<polygon class="st2" points="232.101,63.792 231.511,62.607 228.555,61.423 227.962,63.198 230.33,63.792 			"/>
			<polygon class="st2" points="197.206,108.152 194.841,107.562 196.022,108.746 			"/>
			<polygon class="st2" points="184.193,141.277 184.784,143.052 185.968,142.458 186.558,140.684 185.377,141.277 			"/>
			<path class="st2" d="M226.781,129.445l0.217,0.109c0.014-0.044,0.028-0.087,0.042-0.13l-0.853-0.569L226.781,129.445z"/>
			<polygon class="st2" points="196.022,124.715 197.206,124.124 196.616,123.531 			"/>
			<polygon class="st2" points="202.53,101.054 200.755,100.463 200.755,101.647 202.53,101.647 			"/>
			<polygon class="st2" points="239.2,86.859 237.425,84.494 236.835,85.675 238.609,88.043 			"/>
			<polygon class="st2" points="219.092,131.814 220.273,131.22 220.273,129.445 219.092,129.445 			"/>
			<polygon class="st2" points="193.066,53.734 193.657,54.328 195.431,51.962 192.476,52.553 			"/>
			<polygon class="st2" points="201.939,144.827 202.53,144.827 201.939,143.643 			"/>
			<polygon class="st2" points="207.854,109.927 207.26,111.111 208.444,110.517 			"/>
			<polygon class="st2" points="198.39,94.549 197.206,93.958 196.616,95.139 198.39,95.139 			"/>
			<polygon class="st2" points="239.793,73.846 239.793,73.256 238.609,71.481 237.425,72.071 238.019,73.256 			"/>
			<polygon class="st2" points="238.019,96.323 236.835,95.733 236.835,97.507 237.425,97.507 			"/>
			<polygon class="st2" points="234.469,99.279 233.285,101.054 235.06,102.238 237.425,101.647 236.244,99.279 			"/>
			<path class="st2" d="M225.006,102.238l0.71-0.71c0.246-0.3,0.491-0.6,0.736-0.9l-2.04,1.02L225.006,102.238z"/>
			<polygon class="st2" points="226.781,89.818 225.596,89.818 225.596,90.999 226.781,91.59 			"/>
			<path class="st2" d="M219.092,53.144l-2.368-0.591v1.181l0.804,1.609c0.261,0.297,0.521,0.595,0.781,0.893l3.149,1.048
				L219.092,53.144z"/>
			<polygon class="st2" points="226.187,95.139 224.412,93.958 223.822,95.139 226.187,97.507 			"/>
			<polygon class="st2" points="200.165,107.562 201.346,107.562 201.939,108.152 205.485,106.971 206.079,105.787 201.939,102.828 
							"/>
			<polygon class="st2" points="197.206,114.66 194.841,114.66 193.066,112.886 191.292,112.292 191.292,114.66 197.206,117.616 
				201.346,119.981 202.53,118.8 201.939,117.026 			"/>
			<polygon class="st2" points="194.841,17.063 195.431,16.472 194.841,15.288 			"/>
			<polygon class="st2" points="216.723,83.9 215.542,83.9 214.949,85.085 216.133,88.043 216.723,87.45 217.317,86.269 			"/>
			<polygon class="st2" points="213.768,92.183 214.949,92.183 216.133,89.818 214.949,89.818 			"/>
			<polygon class="st2" points="227.962,102.828 229.146,103.422 229.146,102.238 227.962,101.647 			"/>
			<path class="st2" d="M184.911,54.058c-0.502-0.46-1.027-0.878-1.57-1.265v15.275l4.401-1.32h2.365l0.594,1.184l-2.959,1.775
				l-2.365-0.59l1.181,4.73l-3.217-2.681v48.121c2.958-2.271,5.151-5.559,6.09-9.641c1.127-4.897,0.46-9.959,1.774-14.902
				c0.075-0.282,0.154-0.564,0.235-0.844l-0.15,0.06l-0.59-3.549l0.59-1.184l0.59-0.591l1.361,0.34
				c0.195-0.436,0.397-0.868,0.61-1.295c0.97-1.943,3.028-3.897,3.274-6.128c0.495-4.497-2.892-9.961-4.845-13.808
				c-0.512-1.01-0.988-2.11-1.462-3.245l-0.713,0.474l0.296-1.475C188.97,60.033,187.459,56.393,184.911,54.058z M184.784,95.733
				l-1.181-0.594v-1.181h1.181l0.594,1.181L184.784,95.733z M186.558,115.251v-1.184l0.594,0.594L186.558,115.251z M193.657,77.395
				l1.184,0.591v1.184l-1.775,0.591L193.657,77.395z"/>
			<path class="st2" d="M217.92,21.042c6.286,1.597,12.696-0.201,19.05-0.654l-2.806-2.658l-2.063,0.517l0.536-1.964l-1.807-1.712
				l-5.38-3.588c-1.375-0.37-2.718-0.816-3.993-1.41v0.391l-2.959-1.775l0.273-0.205c-0.127-0.098-0.243-0.207-0.365-0.31
				l-4.421-1.768l-8.662-2.408l-6.6-1.099c4.506,4.713,7.819,11.176,12.738,15.253h1.123l-0.499,0.499
				C213.797,19.462,215.705,20.479,217.92,21.042z M225.006,12.923l0.59,1.775l-0.59,0.591l-0.594-0.591L225.006,12.923z
				 M224.412,17.653v-1.181l0.594,2.365l-2.959,0.59L224.412,17.653z"/>
			<path class="st2" d="M202.967,155.472h0.153l1.775,2.365v0.109l3.797-3.797l0.71-0.769
				C207.234,154.017,205.057,154.634,202.967,155.472z"/>
			<path class="st2" d="M256.819,67.034l0.964-0.964v-2.408l-0.71-1.183c-0.243,1.516-0.475,3.034-0.684,4.554H256.819z"/>
			<path class="st2" d="M202.53,159.612l-2.365-2.365v-0.464c-7.186,3.956-10.237,10.802-15.957,16.152
				c-0.281,0.262-0.57,0.516-0.866,0.764v8.92l2.347-2.798c-0.138,0.018-0.274,0.038-0.412,0.055
				c-0.002-0.012,0.189-0.08,0.525-0.19l1.233-1.47l4.332-3.852l5.293-8.181l6.802-6.803L202.53,159.612z"/>
			<path class="st2" d="M257.783,75.215l0.48-4.813l-0.964-1.925l-1.023-0.614c-0.226,1.727-0.418,3.456-0.544,5.189
				c-0.323,4.436,0.206,8.85,0.563,13.271l0.523-1.483l-0.48-2.405l0.961-6.257L257.783,75.215z"/>
			<path class="st2" d="M244.081,112.618c-2.723,1.456-5.72,2.62-8.813,3.587c-0.094-0.257,6.669-4.104,10.019-6.172l1.424-3.052
				l0.964-0.483l5.709-12.296c-0.06-6.917-1.945-13.654-1.765-20.594c0.118-4.533,0.707-9.01,1.399-13.475l-0.216,0.108
				l-1.181-1.775v-1.775l1.87,0.467c0.246-1.526,0.495-3.051,0.732-4.578c0.193-1.246,0.359-2.566,0.483-3.921l-2.467-7.402
				l-0.028,0.056l-1.184,0.591l0.594-1.775h0.127l-5.518-9.196l-5.675-6.986c-10.311-1.481-21.207,2.84-29.673-4.594l-0.073,0.073
				l0.036-0.107c-0.394-0.348-0.783-0.718-1.166-1.119c-4.687-4.903-8.174-11.769-13.165-16.17l-8.519-1.419l-4.653,0.332v3.593
				c0.731,0.108,1.459,0.234,2.182,0.4c10.792,2.481,16.309,17.775,21.844,26.193c2.37,3.605,4.822,7.218,7.786,10.366l0.389-0.774
				l0.59,0.591l-0.782,0.39c0.552,0.578,1.121,1.142,1.711,1.685c3.971,3.646,8.998,5.362,13.327,8.469
				c8.777,6.298,15.967,16.05,17.071,27.015c0.587,5.829,0.048,12.518-2.225,18.308l4.022,1.508l-1.775,1.184l-2.368-0.594
				l-0.411-0.823c-1.245,2.773-2.919,5.297-5.095,7.363c-0.949,0.9-1.984,1.661-3.072,2.333h0.89l-0.59,2.365l-3.549-0.591
				l0.015-0.059c-2.615,1.215-5.365,2.2-7.925,3.477c4.721,5.375,4.982,10.855,3.191,17.73l3.707-3.397l3.368-4.332l1.927-4.813
				l2.405-0.48l3.369-3.852L244.081,112.618z M204.895,20.612l0.591-1.184l0.594-0.59l0.59,1.775H204.895z M246.889,41.905
				l1.184-1.181l0.59,2.365l-1.775-0.594V41.905z M239.793,35.99l2.365,0.591l-1.184,0.594h-1.181V35.99z M231.511,27.711
				l1.184,0.591l-0.594,1.775l-1.181-1.775L231.511,27.711z M225.596,27.711l0.591,4.14h-0.591V27.711z M226.781,44.27h-1.184
				l-0.59-1.181l1.181-1.184h1.184L226.781,44.27z M229.736,41.314l-1.181,0.591V39.54h1.775L229.736,41.314z M247.532,68.488
				c-2.411-4.981-2.988-10.841-4.193-16.396v0.461h-1.775l-1.181-1.775l0.59-1.184l1.184-0.59l0.487,0.243
				c-1.164-4.212-2.966-8.116-6.571-11.15c-4.023-3.467-10.771-3.897-15.533-6.115c-3.649-1.957-12.333-7.25-12.91-11.385
				c5.1,3.362,10.108,6.868,15.182,10.27c4.438,3.177,9.583,3.37,14.083,6.032c4.228,2.413,6.949,6.792,8.517,11.509l0.295-0.588
				l1.775,0.594l0.59,1.181l-2.436-0.486c0.731,2.387,1.177,4.84,1.376,7.15c0.056,0.651,0.153,1.485,0.262,2.415l0.798-0.796
				l1.775,1.775v1.181l-2.38-0.475C247.81,63.448,248.105,66.975,247.532,68.488z M227.962,114.66v-1.184l2.959-2.365l0.59,1.775
				L227.962,114.66z"/>
			<path class="st2" d="M204.118,30.439c-4.478-8.175-9.282-22.496-19.683-24.261c-0.364-0.062-0.728-0.112-1.092-0.157v11.327
				c2.982,0.55,5.649,1.708,7.576,3.952c1.725,2.009,3.297,4.174,4.817,6.396l1.471-2.354h0.59l0.594,1.775l-1.297,2.593
				c1.053,1.582,2.095,3.176,3.157,4.751l0.504-2.021l0.59-1.181l1.775,1.181l0.59,1.775l-2.308,1.926
				c0.975,1.401,1.975,2.776,3.03,4.099c4.035,5.061,8.634,10.01,13.095,15.102l-0.804-1.609v-1.181l2.368,0.591l2.365,4.14
				l-3.149-1.048c6.236,7.173,12.112,14.661,15.69,23.169l0.471-0.235l0.59,0.591l1.184,0.591l-1.262,1.577
				c0.011,0.03,0.023,0.059,0.033,0.088c2.066,5.718,1.525,9.005-1.847,13.39c-5.048,5.947-10.468,11.58-16.163,16.91
				c0.419-1.463,2.704-3.596,3.888-5.008c1.612-1.921,3.229-3.842,4.823-5.782l-0.71,0.71l-0.594-0.59l2.04-1.02
				c0.911-1.119,1.815-2.242,2.699-3.381c1.934-2.493,3.743-4.33,4.443-6.683l-0.309-0.154l-1.775-2.959l2.282-0.38
				c-0.047-0.306-0.108-0.622-0.187-0.95c-0.191-0.782-0.418-1.562-0.673-2.338l-1.422,0.712l-0.59-2.368l0.88-1.322
				c-2.447-5.702-6.32-11.104-10.05-15.707c-6.382-7.876-12.968-15.422-18.812-23.741c-0.983-1.4-1.951-2.81-2.911-4.226
				l-1.637-0.548l-1.184-2.365l1.006,0.201c-0.737-1.114-1.465-2.233-2.185-3.357l-1.186,0.791l-0.594-1.775l0.587-0.94
				c-2.016-3.501-3.845-7.869-7.543-9.651c-1.211-0.584-2.54-0.979-3.95-1.234v14.222c1.262,1.087,2.481,2.179,3.653,3.189
				c5.462,4.707,11.967,7.564,17.72,11.818c7.49,5.539,13.052,17.035,12.203,27.097l1.581,0.452l1.184,2.365v1.184l-1.775,1.771
				l-2.498,0.501c-0.54,1.276-1.222,2.492-2.065,3.628c-3.913,5.271-7.295,9.196-5.904,16.132c1.319,6.577,4.832,13.03,4.282,19.888
				c-0.03,0.369-0.072,0.723-0.121,1.071c3.576-3.818,7.591-7.33,12.083-9.967c4.484-2.632,9.892-4.647,13.473-8.549
				c5.872-6.398,7.04-16.947,5.628-25.179c-1.599-9.321-8.217-18.494-16.082-23.808l-0.517,0.259l0.227-0.453
				c-0.343-0.227-0.689-0.45-1.036-0.662c-1.33-0.811-2.632-1.539-3.899-2.27l-2.981,0.425l-1.775-1.775l-0.59-1.775l0.143-0.285
				c-1.055-0.838-2.072-1.778-3.041-2.892c-1.944-2.236-3.613-4.679-5.152-7.207l-0.23,0.92l-2.368,1.775l-0.591-2.956l2.335-1.169
				C206.156,34.168,205.136,32.298,204.118,30.439z M194.841,17.063v-1.775l0.59,1.184L194.841,17.063z M225.596,89.818h1.184v1.771
				l-1.184-0.591V89.818z M224.412,93.958l1.775,1.181v2.368l-2.365-2.368L224.412,93.958z M214.949,92.183h-1.181l1.181-2.365
				h1.184L214.949,92.183z M216.133,88.043l-1.184-2.959l0.594-1.184h1.181l0.594,2.368l-0.594,1.181L216.133,88.043z
				 M229.146,103.422l-1.184-0.594v-1.181l1.184,0.59V103.422z M235.06,102.238l-1.775-1.184l1.184-1.775h1.775l1.181,2.368
				L235.06,102.238z M238.609,71.481l1.184,1.775v0.591l-1.775-0.591l-0.594-1.184L238.609,71.481z M237.425,84.494l1.775,2.365
				l-0.59,1.184l-1.775-2.368L237.425,84.494z M236.835,95.733l1.184,0.591l-0.594,1.184h-0.59V95.733z M228.555,61.423l2.955,1.184
				l0.59,1.184h-1.771l-2.368-0.594L228.555,61.423z"/>
			<path class="st2" d="M215.13,74.067c0.201-9.896-6.68-20.435-14.7-25.268c-6.052-3.647-11.677-6.888-17.088-11.324v12.481
				c2.682,1.422,5.006,3.362,6.705,5.999c4.407,6.838,15.12,22.001,9.059,29.825c-0.003,0.004-0.006,0.008-0.009,0.012l2.249,2.252
				v1.181l-2.365-0.591l-0.801-1.6c-0.595,0.837-1.152,1.694-1.671,2.571l0.107,0.213l-0.781,0.975
				c-1.649,3.045-2.846,6.309-3.548,9.761c-1.129,5.554-1.054,10.452-4.235,15.423c-0.763,1.192-1.607,2.23-2.516,3.137l0.433,0.866
				h-1.36c-0.41,0.352-0.834,0.673-1.266,0.978v9.597c10.643-0.008,27.066,1.579,26.642-12.972
				c-0.175-6.005-2.947-11.557-3.967-17.412c-1.015-5.833,1.506-9.759,4.563-14.109l-1.545-0.387l-0.59-1.181l1.184-0.594
				l1.683,1.123c0.211-0.299,0.423-0.601,0.636-0.907c1.126-1.618,1.927-3.339,2.446-5.12l-0.625-2.192h-1.184l1.775-2.959
				L215.13,74.067z M193.657,54.328l-0.59-0.594l-0.591-1.181l2.956-0.591L193.657,54.328z M207.854,109.927l0.59,0.591
				l-1.184,0.594L207.854,109.927z M200.755,100.463l1.775,0.591v0.594h-1.775V100.463z M197.206,93.958l1.184,0.591v0.59h-1.775
				L197.206,93.958z M197.206,108.152l-1.184,0.594l-1.181-1.184L197.206,108.152z M196.022,124.715l0.594-1.184l0.59,0.594
				L196.022,124.715z M201.346,119.981l-4.14-2.365l-5.914-2.956v-2.368l1.775,0.594l1.775,1.775h2.365l4.733,2.365l0.59,1.775
				L201.346,119.981z M206.079,105.787l-0.594,1.184l-3.546,1.181l-0.594-0.591h-1.181l1.775-4.734L206.079,105.787z
				 M209.628,81.535l-2.368,0.59l-0.59-1.181l0.59-1.184v-2.365h1.184l1.184,1.184V81.535z M209.628,74.436l-0.594-0.59l0.594-1.184
				l1.181,1.184L209.628,74.436z M209.034,67.341l-0.59-1.184l1.184-0.591h1.181L209.034,67.341z"/>
			<path class="st2" d="M227.742,118.39c-0.294-0.706-2.002-3.187-2.869-4.764c-2.317,1.394-9.944,6.774-13.47,9.095
				c-1.982,9.282-11.3,10.674-20.509,11.1l1.582,0.949l3.546,0.594v2.956l-2.365,0.59l-1.181-2.365l-2.959,1.184l0.59-2.959
				l-0.3-0.903c-2.213,0.087-4.403,0.134-6.466,0.237v12.684c0.578,2.54,0.665,5.046,0,7.39v4.853
				c0.273-0.265,0.543-0.53,0.808-0.792c2.711-2.689,6.461-8.771,10.356-9.792c2.697-0.615,5.111-1.72,7.585-3.013
				c5.68-3.01,11.793-6.32,16.435-10.845c3.903-3.912,1.789-10.539,4.267-14.395c-0.294,8.374-0.704,13.532-7.388,18.821
				c-1.581,1.251-3.21,2.451-4.878,3.599l0.875,0.439v1.181l-1.775-0.59l-0.362-0.181c-2.456,1.633-4.987,3.156-7.568,4.554
				c-1.791,0.97-4.462,2.796-6.621,2.685c-0.992-0.3-4.692,4.666-5.304,5.349c-2.062,2.302-4.189,4.543-6.432,6.66v4.708
				c0.397-0.418,0.79-0.847,1.172-1.301c1.628-1.932,3.204-3.801,4.849-5.535l-1.62-0.971v-1.181l3.221,0.536
				c2.895-2.786,6.107-5.105,10.238-6.595l-1.63-1.631l2.368-0.594l0.59,0.594l0.509,1.019c3.818-1.195,7.843-2.08,11.424-3.863
				l0.005-0.005l3.849-5.776l3.731-2.611l0-0.002l0,0.001l1.082-0.757l0.237-0.285c1.509-2.906,2.698-6.065,3.631-8.908
				l-0.217-0.109l-0.594-0.59l0.853,0.569c0.257-0.787,0.496-1.549,0.716-2.272C228.673,124.145,228.975,121.349,227.742,118.39z
				 M185.968,142.458l-1.184,0.594l-0.59-1.775h1.184l1.181-0.594L185.968,142.458z M201.939,144.827v-1.184l0.59,1.184H201.939z
				 M220.273,131.22l-1.181,0.594v-2.368h1.181V131.22z"/>
			<path class="st2" d="M217.907,56.102l0.401,0.133c-0.259-0.298-0.52-0.596-0.781-0.893L217.907,56.102z"/>
			<path class="st2" d="M226.781,100.463l-0.328,0.164c-0.245,0.301-0.49,0.601-0.736,0.9L226.781,100.463z"/>
			<path class="st2" d="M227.962,130.039l-0.921-0.615c-0.014,0.044-0.028,0.087-0.042,0.13L227.962,130.039z"/>
		</g>
	</g>
</g>
</svg>
