<svg id="Ebene_1" xmlns="http://www.w3.org/2000/svg" viewBox="0 0 260 353.31"><style>.st0{fill:#635949}.st2{fill:#617237}</style><path class="st0" d="M22.691 254.534v40.184c0 1.672.593 2.211 1.888 2.211.863 0 1.51-.323 1.51-.323v3.56s-.971.593-3.021.593c-2.859 0-4.639-1.564-4.639-4.962v-41.263h4.262zM55.862 290.349c0 4.207-2.697 10.41-12.136 10.41-11.813 0-13.754-9.008-13.754-20.874 0-10.141 1.834-19.041 13.161-19.041 10.788 0 12.783 9.116 12.783 19.094v1.079H34.287c.054 8.792 1.079 15.912 9.547 15.912 6.85 0 8.252-4.423 8.252-7.39l3.776.81zm-21.521-13.161h17.26c-.162-7.012-1.834-12.514-8.468-12.514-7.228 0-8.576 5.664-8.792 12.514zM72.206 300.327H60.447v-3.776h3.776V273.25h-3.776v-3.776h11.759v3.776h-3.722v23.302h3.722v3.775zm-5.934-41.694c2.211 0 4.153 1.834 4.153 3.992 0 2.211-1.942 4.045-4.153 4.045-2.373 0-4.207-1.834-4.207-4.045 0-2.158 1.834-3.992 4.207-3.992zM78.355 307.07v-45.794H82.4v5.502h.216c.863-2.805 3.776-5.933 8.684-5.933 9.116 0 12.837 7.12 12.837 19.904 0 13.107-3.776 20.011-12.837 20.011-4.908 0-7.551-2.859-8.414-5.826h-.27v12.136h-4.261zM91.3 296.929c6.311 0 8.684-5.771 8.684-16.181 0-10.086-2.373-16.074-8.684-16.074-6.904 0-9.17 6.311-9.17 16.074s2.643 16.181 9.17 16.181zM109.315 270.823c0-4.746 3.344-9.979 11.597-9.979 8.414 0 12.298 4.531 12.298 11.058l-4.099.647c0-4.693-2.427-7.875-8.091-7.875-5.34 0-7.444 2.967-7.444 6.203 0 9.385 19.796 5.394 19.796 19.688 0 5.394-3.129 10.14-12.46 10.248-9.008.108-12.352-5.394-12.352-10.41l4.045-.647c0 3.614 2.158 7.228 8.414 7.228 6.527 0 8.037-3.56 8.037-6.796 0-10.411-19.741-5.772-19.741-19.365zM139.574 307.07v-45.794h4.045v5.502h.216c.863-2.805 3.776-5.933 8.684-5.933 9.116 0 12.837 7.12 12.837 19.904 0 13.107-3.776 20.011-12.837 20.011-4.908 0-7.552-2.859-8.414-5.826h-.269v12.136h-4.262zm12.945-10.141c6.311 0 8.684-5.771 8.684-16.181 0-10.086-2.373-16.074-8.684-16.074-6.904 0-9.17 6.311-9.17 16.074s2.643 16.181 9.17 16.181zM196.263 290.349c0 4.207-2.697 10.41-12.136 10.41-11.813 0-13.755-9.008-13.755-20.874 0-10.141 1.834-19.041 13.161-19.041 10.788 0 12.783 9.116 12.783 19.094v1.079h-21.63c.054 8.792 1.079 15.912 9.547 15.912 6.85 0 8.253-4.423 8.253-7.39l3.777.81zm-21.522-13.161h17.26c-.162-7.012-1.834-12.514-8.468-12.514-7.228 0-8.576 5.664-8.792 12.514zM212.606 300.327h-11.759v-3.776h3.776V273.25h-3.776v-3.776h11.759v3.776h-3.722v23.302h3.722v3.775zm-5.934-41.694c2.211 0 4.153 1.834 4.153 3.992 0 2.211-1.942 4.045-4.153 4.045-2.373 0-4.207-1.834-4.207-4.045 0-2.158 1.834-3.992 4.207-3.992zM217.514 270.823c0-4.746 3.344-9.979 11.597-9.979 8.414 0 12.298 4.531 12.298 11.058l-4.099.647c0-4.693-2.427-7.875-8.091-7.875-5.34 0-7.443 2.967-7.443 6.203 0 9.385 19.795 5.394 19.795 19.688 0 5.394-3.128 10.14-12.46 10.248-9.008.108-12.352-5.394-12.352-10.41l4.045-.647c0 3.614 2.158 7.228 8.414 7.228 6.527 0 8.037-3.56 8.037-6.796 0-10.411-19.741-5.772-19.741-19.365z"/><g><path d="M119.933 139.722a2.62 2.62 0 0 1-.419-.576l.113-.226.639.635-.333.167zM170.545 9.71h1.061V7.907l-1.061.529V9.71zM91.486 58.619l-.502 2.012h-1.271l-.639-1.274v-1.274h1.851c.214.153.403.333.561.536zm.134-28.541l2.549-2.549v-1.271l-3.819-1.274-.635 1.274v2.46c.028.047.054.094.083.14l1.822 1.22zm1.275 17.82l-.635-.635-1.91 1.274-.303 1.212c.05.445.126.89.225 1.333h.713l1.91-3.184zm8.275 12.094l-1.274.639-.239.959c1.341.514 2.713.826 4.067.935l.628-1.259-3.182-1.274zm2.544-35.008l1.274.635-.635-1.906-.639 1.271zm-.924 8.371a6.883 6.883 0 0 1-.64.374l-1.619-2.7 2.549-2.545 1.91 1.274.173.868a6.928 6.928 0 0 1-2.373 2.729zm5.382 6.268l1.222.614.044.03-.631.631-1.274.635.639-1.91zm37.254-11.618l.297-.476h.635l.639 1.91-.03.06c-.647-.418-1.174-.925-1.541-1.494zm-2.248 6.528l-.236-.706c.431-.023.861-.02 1.286.005l-1.05.701zm10.819-12.094l.265-.532c.445.146.862.324 1.246.532h-1.511zm7.246-2.155c.06-.342.137-.685.232-1.028h.797l-1.029 1.028zm1.435 16.883a11.466 11.466 0 0 1 2.614-1.402l1.756 1.317 1.271.635-4.455.635-1.186-1.185zm7.867.547l1.061.176v5.892l-1.696-.339-.635-4.455 1.27-1.274zm-37.233 2.543v-.344c.181-.334.377-.659.59-.974l1.32 1.318h-1.91zm-19 17.572c.464-.686.834-1.412 1.115-2.165l-1.53.512.415 1.653zm1.479-8.657a12.064 12.064 0 0 0-.184-.714l-1.071.714h1.255zm10.2 9.549l-.345-.346a9.558 9.558 0 0 0-1.146-.27l-.419 1.251 1.91-.635zm1.274 8.274l1.274-.639-.639-.635-.635 1.274zm6.036-5.84c0 .144.016.285.04.423l1.563-.312-.292-2.329c-.788.471-1.311 1.287-1.311 2.218zm7.332 5.201l-1.91.639-.639 3.181 1.91-1.271.639-2.549zm.351-9.615c.717.161 1.452.255 2.198.276l.632-.842-2.83.566zm4.739-19.663l1.274 2.545 1.91.639 3.214-2.682a11.585 11.585 0 0 0-2.646-2.144l-.569 2.278-3.183-.636zm9.227 6.127a11.89 11.89 0 0 0-.353-1.38 11.799 11.799 0 0 0-.572-1.425l.608 3.043.317-.238zm11.14 1.512l-.635-.635-.639 1.271 1.274-.636zm.636 12.094v1.271L168 60.631l3.606 1.2v-.303l-2.331-4.081-2.549-.636zm-8.91 34.372l.635 1.271 2.549.639v-1.274l-1.91-1.274-1.274.638zm2.545-11.458l-.974.487a4.312 4.312 0 0 1-.59-1.176l.294-.586 1.27 1.275zm3.82 0l1.928.552a2.863 2.863 0 0 1-.388.713c-.684.911-1.824 1.314-3.015 1.194l1.475-2.459zm-.385 19.231a8.69 8.69 0 0 1 1.245.054l-.224.448h-1.271l.25-.502zm3.071-6.324c0-.413.028-.816.079-1.207l.418 1.668-.409.814a9.303 9.303 0 0 1-.088-1.275zm3.834 20.331c-1.098.856-2.451 1.362-3.894 1.491l-.716-.357 1.91-2.545-.635-3.184 3.18 3.82.155.775zM88.44 70.176l-.084-.042v-2.378l.084-.126h1.91l-.635 1.91-1.275.636zm6.364 10.184v-1.271l-1.015-.761a10.41 10.41 0 0 0-1.656 2.958l1.396.349 1.275-1.275zm.376 11.545c.172.157.35.309.533.458l-.273-.545-.26.087zm5.353-16.635l-.454-1.363c-.607.229-1.191.488-1.749.776l.293.588h1.91zm6.905-7.181c0-.512-.161-.989-.434-1.394l-2.652 2.211 1.531 1.531c.923-.439 1.555-1.325 1.555-2.348zm-2.45 24.365l-.635 2.549 1.91.635.635-.635-1.91-2.549zm5.729-1.91l-.635-2.545-2.549-1.274v1.274l.639 1.274 2.545 1.271zm9.548-4.455v-6.365h-2.549l-1.271 3.184.635 2.545 3.185.636zm5.402-6.705a12.389 12.389 0 0 0-.745 1.673l2.343 3.123-1.598-4.796zm8.598.341l-1.271-5.09 2.545.635 3.184-1.91-.039-.079a11.956 11.956 0 0 0-9.009 1.715l.774 1.548 3.816 3.181zm.639 13.368l-1.274.635v1.274l2.545 1.271 1.91-1.271-.635-.639-2.546-1.27zm5.09 2.545l-.635.635-.635 1.274.031.187a11.948 11.948 0 0 0 4.141-1.58l-.357.119-2.545-.635zm1.274-9.549l1.91-.635V84.18l-1.274-.635-.636 2.544zm4.455 15.278l-.006.011c.302.456.747.821 1.28 1.04v-.415l-1.274-.636zm9.548-28.007l-7.003.635v1.411c2.132.716 4.694.635 7.171-.305l1.103-1.106-1.271-.635zm1.271 15.275l2.549-.635v-1.517a7.637 7.637 0 0 0-1.358-.124c-.478 0-.942.048-1.39.13l-.436.875.635 1.271zm-67.159 11.508l-.943 3.769-.084.021v1.412l5.174-2.069 1.274-1.91v-.253c-1.019-.801-2.258-1.275-3.599-1.275a5.732 5.732 0 0 0-1.822.305zm-.308 10.77h-.719v-1.081l.719 1.081zm2.545 0l.639 1.274h-.639v-1.274zm15.278-7.001h-.062a16.015 16.015 0 0 1 2.755-2.775l1.126 1.501-3.819 1.274zm10.183 12.73l-1.91-3.181v-3.184l3.184 1.274.635 1.91-.635.635-1.274 2.546zm17.184 0l1.57 1.883c-.625-1.544-2.093-2.568-3.866-2.88l-.249.997h2.545zm0 6.365l.529.529c-.163.191-.34.375-.529.551v-1.08zm6.273-1.515l.73.244 1.91 1.91h1.085c-.281.085-.58.132-.892.132-1.45 0-2.644-.996-2.833-2.286zm31.068 2.441a7.619 7.619 0 0 0-.442-1.861l.442-.442v2.303zm-7.424 6.711l-1.473.493c.63.333 1.314.558 2.038.64l-.565-1.133zm-71.923-8.908l-.639.635h.639v-.635zm.636 21.003h3.819v-1.274l-2.545-2.545-.053-.013a2.959 2.959 0 0 0-1.293.577l.072.072v3.183zm3.819-17.184l-1.274-1.274h-1.271v1.274l2.545 2.545v-2.545zm1.274-3.819l-1.91-.639v1.274h1.91v-.635zm2.545-5.094l.346-.806a9.421 9.421 0 0 0-1.62-.439v1.884l1.274-.639zm.636 11.458l-1.271 1.271v.449a8.98 8.98 0 0 0 3.002-1.362l.179-.357h-1.91zm1.909-6.364l1.274-1.274 1.366.124a6.974 6.974 0 0 0-.91-1.792l-2.366.394.636 2.548zm1.91 14.003l-1.274-.639-.188.565a3.01 3.01 0 0 0 1.215.321l.247-.247zm14.638-10.184l1.707.426a7.438 7.438 0 0 0-.931-2.461l-2.046-.514 1.27 2.549zm7.641 3.5h1.277a2.94 2.94 0 0 0-.978-.448l-.299.448zm6.099-.211c-.061.17-.104.347-.133.528h.397l-.264-.528zm37.181-6.155l.617-.617a7.349 7.349 0 0 0-.492-1.036l-.76.379.635 1.274zm-7.002 42.964l-.311-.928a3.038 3.038 0 0 0-1.077.235l1.388.693zm-50.283-5.729v.189c-.483.468-1.034.783-1.627.908l-2.192-1.098.639-.635 3.18.636zm20.368-6.365l.635-1.91-1.271.639h-1.274l.635 1.91 1.275-.639zm21.638 24.827l1.271 1.271h.003l.318-1.112-.318-.159h-1.274zm-66.773-12.843l-.055.11v1.274h.264c.015-.111.026-.222.026-.337m11.482 17.839l-4.024-.309c-.035-.08-.074-.159-.104-.242a3.895 3.895 0 0 1-.214-.993l2.433.27 1.274-.635.635 1.909zm3.502-2.863l1.395-1.395c-.034-.07-.073-.135-.11-.202l-.646.323-.639 1.274zm26.933 34.899c.232.104.477.195.733.274l-.619-.617-.114.343zm-5.93 10.761l-.479-.479a2.88 2.88 0 0 1 1.392-.882l.361.723-1.274.638zm-14.635-13.833l-.595.297c.12.124.252.237.395.339h.2v-.636zm46.963-35.495l.771-2.697h-1.274l-1.318.989c.275.805.956 1.441 1.821 1.708zm8.269-26.534a3.25 3.25 0 0 1 .686-1.565l1.682 2.805-.45 2.47c-1.339-.927-2.117-2.3-1.918-3.71zm-46.005 31.157v-3.184l-.246-.049c-.567.743-.926 1.56-1.061 2.361l1.307.872zm52.297-175.36v-2.97l-2.657.857c.482.473.78 1.108.78 1.808 0 1.459-1.281 2.641-2.861 2.641-1.58 0-2.861-1.183-2.861-2.641 0-.079.005-.156.013-.234l-6.846 2.162-.249.194c.253.262.476.557.651.891 1.113 2.124.079 4.861-2.311 6.114-2.177 1.141-4.722.653-6-1.047l-.752.585-4.918 2.682-.416.416v-.162l-3.296 4.176c1.273.268 2.223 1.317 2.223 2.573 0 1.459-1.281 2.641-2.861 2.641-1.046 0-1.957-.52-2.456-1.293l-.789 1-4.815 4.332h-3.849l-2.888-2.408-2.405-3.369-1.602-1.525.461 2.309h-1.274v-2.545l.276-.275-7.043-6.706c-.952.41-2.128.595-3.377.47-2.903-.292-5.093-2.146-4.893-4.142.074-.739.467-1.393 1.078-1.91l-1.435-1.077L92.2 4.933l-1.094-.298a2.938 2.938 0 0 1-2.262 1.031 3.13 3.13 0 0 1-.488-.04v14.376c.489-1.652 1.453-3.069 2.875-4.016 3.833-2.551 9.528-.731 12.72 4.066 2.329 3.499 2.68 7.614 1.212 10.575l.462 2.312v2.548l-3.184-1.274-.291-.484c-3.804 1.968-9.061.097-12.08-4.439a13.456 13.456 0 0 1-.274-.43l-.083-.056v-.085a12.577 12.577 0 0 1-1.358-3.224V35.53l1.994-.997-1.274 4.455-.719.721v.372c.115.296.216.598.292.914.349 1.457.221 2.932-.292 4.297v12.34c.258-.071.531-.11.814-.11a3 3 0 0 1 1.756.559h.694l-.134.536c.341.435.544.968.544 1.546 0 1.459-1.281 2.641-2.861 2.641-.283 0-.556-.039-.814-.11v3.487a7.525 7.525 0 0 1 1.929-1.034c3.257-1.182 6.678.013 7.643 2.67.964 2.657-.894 5.769-4.151 6.951-1.933.702-3.92.56-5.421-.222v7.864c.757.476 1.254 1.277 1.254 2.185 0 .909-.497 1.71-1.254 2.185v4.641l.043-.002c1.58 0 2.861 1.183 2.861 2.641 0 1.459-1.281 2.641-2.861 2.641l-.043-.002v3.908c.327-.187.67-.345 1.027-.466l.331-1.325 3.18-1.906h1.91v4.202c1.616 1.269 2.674 3.366 2.674 5.742 0 3.875-2.809 7.016-6.273 7.016a5.729 5.729 0 0 1-2.85-.766v1.446l.719.18v1.274l-.719-.239v43.957l.4.2-.4.802v4.565a2.7 2.7 0 0 1 .139.253l.581-1.161 1.274.635v1.91h-1.646c-.048.346-.17.669-.348.96v28.719l6.705 7.422c.267-1.204 1.42-2.109 2.803-2.109 1.58 0 2.861 1.183 2.861 2.641s-1.281 2.641-2.861 2.641c-.029 0-.057-.003-.086-.004l3.086 3.704.961.48 2.408 4.332 8.181 7.701 2.408 4.332 3.849 4.332 8.184 5.776 2.405.481 4.332-.963 4.223-3.659c-.669-.483-1.101-1.234-1.101-2.079 0-1.459 1.281-2.641 2.861-2.641.883 0 1.672.37 2.197.95l3.372-4.12 1.925-.963 3.849-3.849 6.253-8.659-.477-3.343h.004l-.004-.031h2.888l2.971-2.23c-1.066-2.499-.604-5.235 1.303-6.612 1.287-.93 2.956-1.042 4.532-.464l1.783-3.208 1.436-1.118v-39.144a6.959 6.959 0 0 1-1.54-.046 6.62 6.62 0 0 1-2.832-1.081l-.825 4.53v1.91l-1.271-1.91-.639-5.09-1.91-.635-3.18-4.458h-3.184l1.274-1.906 3.819.635 2.545 3.181 1.91-1.91.227.379c1.027-1.3 3.034-2.027 5.208-1.719.135.019.266.046.398.072V125.66c-.381 3.467-3.021 6.153-6.224 6.153-.214 0-.426-.012-.634-.036l.071.142h-1.271l-1.274-.635.437-.146c-2.126-1.123-3.601-3.536-3.601-6.341 0-3.875 2.809-7.016 6.273-7.016 2.226 0 4.176 1.301 5.29 3.256l.514-.256h.42v-8.676a6.62 6.62 0 0 1-.905.86l.483 2.409-3.819-.639-.558-.278c-1.919.172-3.996-.318-5.834-1.526-3.924-2.578-5.279-7.448-3.026-10.877 1.288-1.961 3.478-3.024 5.85-3.094l1.02-2.044h1.274l-1.05 2.097a9.417 9.417 0 0 1 4.09 1.5 9.52 9.52 0 0 1 2.475 2.348v-4.147a2.75 2.75 0 0 1-.666.084c-1.96 0-3.596-2.097-3.984-4.888l-.23.457-.635.639-1.274-3.184.639-1.274h1.271l.221.88c.371-2.826 2.017-4.957 3.993-4.957.227 0 .449.031.666.085v-4.391c-2.707-2.231-4.181-5.435-3.618-8.681.394-2.274 1.724-4.192 3.618-5.547v-5.311a19.846 19.846 0 0 1-5.861-2.997c-7.248-5.357-9.658-14.388-5.384-20.171a10.558 10.558 0 0 1 2.317-2.288l-.724-.724-.635-1.91.635-1.271 3.338 2.503c1.917-.735 4.079-1.009 6.315-.82v-7.057c-1.885 1.467-4.169 2.023-6.247 1.285-3.171-1.126-4.816-4.893-4.116-8.889l-.881.881.639-1.91h.474c.072-.261.153-.522.245-.783 1.639-4.614 5.925-7.304 9.573-6.008.106.038.21.08.313.124v-1.736l-2.97-1.782 2.548-1.91h.42zm-78.774 4.978c-1.58 0-2.861-1.183-2.861-2.641s1.281-2.641 2.861-2.641c1.58 0 2.861 1.183 2.861 2.641s-1.28 2.641-2.861 2.641zm77.078 175.79l.635 1.274h-.635v-1.274zm-1.275-5.09L168 184.11l-1.274-.635 1.909-.636zm.639-43.284h1.271v1.91l-1.271.639v-2.549zm-3.185 4.141h-1.271v-1.274h2.545l-1.274 1.274zm-1.973-8.802c1.58 0 2.861 1.183 2.861 2.641s-1.281 2.641-2.861 2.641c-1.58 0-2.861-1.183-2.861-2.641s1.281-2.641 2.861-2.641zm-31.64-85.886c-1.02-3.141-.622-6.4.836-9.095v-1.562l.59.589a11.597 11.597 0 0 1 6.051-4.558 11.635 11.635 0 0 1 2.989-.554l-.403-1.204 2.887-4.618c-.375-.581-.589-1.225-.589-1.904 0-2.559 2.966-4.634 6.624-4.634 1.003 0 1.95.161 2.802.44l.37-.742.639-.635.635 1.91h-.399c1.564.848 2.576 2.171 2.576 3.662 0 2.559-2.966 4.634-6.624 4.634-1.736 0-3.312-.471-4.493-1.236l-1.88 3.759-.859.573c1.868.109 3.666.668 5.247 1.604l.067-.267.635-1.271 1.91 1.271.635 1.91-.601.502a11.484 11.484 0 0 1 1.903 2.82l-.028-.138 2.545-1.274h1.274l-.635 2.545-2.231 1.672c1.103 5.673-2.182 11.412-7.831 13.246a11.619 11.619 0 0 1-3.937.566l-1.278 1.703-.635-.639-.635-1.271.351-.07a11.677 11.677 0 0 1-5.067-2.547l-1.652 1.982.347 2.761a3.02 3.02 0 0 1 1.551-.424c1.58 0 2.861 1.183 2.861 2.641 0 1.459-1.281 2.641-2.861 2.641-1.424 0-2.602-.961-2.821-2.218l-1.621.323 1.91-8.274 1.143-.57a11.518 11.518 0 0 1-2.298-4.049zm18.976 59.995v.639h-1.91v-1.274l1.91.635zm-.377-27.762c0-1.459 1.281-2.641 2.861-2.641 1.58 0 2.861 1.183 2.861 2.641 0 1.459-1.281 2.641-2.861 2.641-1.58 0-2.861-1.183-2.861-2.641zm-2.917 21.406c-.414 0-.806-.083-1.161-.229v.22h-1.91l.63-1.26c-.265-.4-.42-.869-.42-1.373 0-1.459 1.281-2.641 2.861-2.641s2.861 1.183 2.861 2.641-1.28 2.642-2.861 2.642zm6.934 72.748c0-1.459 1.281-2.641 2.861-2.641 1.58 0 2.861 1.183 2.861 2.641 0 1.459-1.281 2.641-2.861 2.641a3.08 3.08 0 0 1-.908-.138l-.185.646.953.476-.635 1.274-.639-.639h-2.542v-2.545l1.227-.921a2.431 2.431 0 0 1-.132-.794zm.179-11.652l.635-1.271.635.635-1.27.636zm-5.732 21.007l-.635 1.271-1.274-1.271.639-.639h-.635l1.274-1.271-.639 1.271 1.27.639zm-6.883-21.186c0-1.459 1.281-2.641 2.861-2.641 1.58 0 2.861 1.183 2.861 2.641s-1.281 2.641-2.861 2.641c-1.58 0-2.861-1.182-2.861-2.641zm2.432 27.551l-.639 1.271-1.271.639.635-1.91h1.275zm-.066-41.969c-.215 0-.428-.009-.637-.026l-2.481.619-.884-1.771a5.925 5.925 0 0 1-.768-.622l-2.803 1.122.635-3.184-.635-1.91 1.308.784c-.001-.044-.008-.087-.008-.131 0-2.826 2.809-5.117 6.273-5.117 3.464 0 6.273 2.291 6.273 5.117 0 2.828-2.809 5.119-6.273 5.119zm-8.75 36.154c0-1.459 1.281-2.641 2.861-2.641 1.58 0 2.861 1.183 2.861 2.641 0 1.459-1.281 2.641-2.861 2.641-1.579.001-2.861-1.182-2.861-2.641zm1.812 8.36l-1.271.635.635-1.271.636.636zm-6.684 5.41l2.545.635-.635 1.91-1.274.635-1.271-.635.635-2.545zm-.319-8.594v-1.271l1.274 1.271h-1.274zm1.913-7.635h-1.274l.635-1.91-.635-1.274 2.545-.635.639 2.545-1.91 1.274zm-2.243-16.793c-.818-2.254.575-4.828 3.111-5.748 2.536-.92 5.256.16 6.074 2.414.818 2.254-.575 4.828-3.111 5.748-2.537.921-5.256-.16-6.074-2.414zm-9.495-12.231c-1.943-4.275-.491-9.116 3.244-10.814 3.735-1.698 8.338.391 10.281 4.665s.491 9.116-3.244 10.814c-1.55.705-3.25.755-4.847.27l-.38.854-1.274.639h-1.274v-3.1a9.447 9.447 0 0 1-2.506-3.328zm-11.174 15.655l1.271-.635.635 1.271-1.906.639v-1.275zm-.639-3.819l1.274-.635.635 1.91h-1.271l-.638-1.275zm2.546 21.641l2.545.639.639 3.181-.639 1.274-2.545-.639-1.274-2.545 1.274-1.91zm-2.546-52.194l-.635-1.271v-1.274h1.274l1.271 2.545h-1.91zm1.909 3.183l-1.274 1.274-.635-.639 1.909-.635zm-2.428-10.846c0-3.875 2.809-7.016 6.273-7.016 2.167 0 4.078 1.23 5.205 3.099l.499.125 1.271 1.271v1.274l-.838-.209c.089.47.137.956.137 1.456 0 2.466-1.14 4.631-2.86 5.882l.381 1.145-1.242-.622a5.693 5.693 0 0 1-2.551.611c-3.466.001-6.275-3.141-6.275-7.016zm19.33-11.441c1.265-.459 2.554-.556 3.715-.351l.386-1.548-1.906-2.545v-1.274l5.726 6.365 5.094 1.274-1.91.635-1.91 1.91-1.614-1.936c.019.048.044.092.061.141.594 1.637.114 3.445-1.102 4.87l.109.11-.639.635v-.194a7.396 7.396 0 0 1-2.519 1.53c-3.257 1.182-6.678-.014-7.643-2.67-.963-2.658.895-5.77 4.152-6.952zm-.353-17.813h-2.545l1.274-1.91 1.271.639v1.271zm10.352 15.139c-3.951 0-7.153-2.661-7.153-5.943 0-3.282 3.203-5.943 7.153-5.943 3.951 0 7.153 2.661 7.153 5.943.001 3.283-3.202 5.943-7.153 5.943zm7.47 3.32l-1.274.639-1.271-1.274 2.545.635zm-13.368-13.365l-1.271-.639v-1.271h1.271l.639 1.271-.639.639zm-.635 26.094V128.1h1.274l.372.743c.506-1.403 2.058-2.424 3.897-2.424 2.249 0 4.072 1.528 4.072 3.412s-1.823 3.412-4.072 3.412-4.072-1.527-4.072-3.412c0-.156.017-.309.041-.46h-1.512zm-1.592 7.959l.635-.635 1.91 1.91v1.271l-1.91-.635v-1.271l-.635-.64zm-.459-6.178c0 1.459-1.281 2.641-2.861 2.641-1.58 0-2.861-1.183-2.861-2.641 0-1.459 1.281-2.641 2.861-2.641.263 0 .516.035.757.097l.972-1.462 1.274.635v1.274h-1.268c.684.483 1.126 1.241 1.126 2.097zm-10.455 6.824c0-1.459 1.281-2.641 2.861-2.641 1.58 0 2.861 1.183 2.861 2.641 0 1.459-1.281 2.641-2.861 2.641a2.959 2.959 0 0 1-2.143-.895l-.942.472.523-1.048a2.468 2.468 0 0 1-.299-1.17zm5.506-2.876h-2.549l-.635-1.271 3.184 1.271zm-10.823 31.827h1.271l-.635 1.274-.636-1.274zm1.271-1.91v-1.274l1.274-.635.635 1.274-1.909.635zm.004-9.548v-1.271h3.184l-.639 1.271h-2.545zm4.137 12.733l2.548.635.635 1.274-1.274 1.271h-1.91l-1.271-1.271 1.272-1.909zm16.23 2.545l3.819.635v1.274l-.635 1.271-3.184-1.91v-1.27zm8.91-36.282l.639-1.274.635.639-1.274.635zm7.003 21.643h-.635v-1.274l.635 1.274zm1.91 2.543l.635.639.635 1.271-1.91.639-1.91-1.91 2.55-.639zm-1.91-30.551l-1.274 1.271-4.455-2.545-6.364-3.181v-2.549l1.18.395a2.44 2.44 0 0 1-.029-.355c0-1.459 1.281-2.641 2.861-2.641 1.58 0 2.861 1.183 2.861 2.641 0 1.171-.827 2.163-1.97 2.509h1.46l5.094 2.545.636 1.91zm-.542-3.442c0-1.459 1.281-2.641 2.861-2.641 1.58 0 2.861 1.183 2.861 2.641 0 1.459-1.281 2.641-2.861 2.641-1.58.001-2.861-1.182-2.861-2.641zm-.732-28.384l-2.545-.635-1.274-2.545 1.274-.639 2.545 2.549v1.27zm-7.282-.119l1.553-.517.639 1.274-2.549 3.181-3.181 1.274-.604-3.632c-5.573 1.008-11.328-2.056-13.612-7.621a12.592 12.592 0 0 1-.22-9.058l-1.476-1.967.635-.639h1.274l.311.934a12.034 12.034 0 0 1 4.008-4.388l-.5-1 6.364-1.91h2.545l.6 1.196c3.913.807 7.393 3.525 9.049 7.559 2.366 5.76.2 12.228-4.836 15.314zm-18.815-1.152h-1.91l.639-.639.635-1.271.636 1.91zm12.302-27.135c0-1.459 1.281-2.641 2.861-2.641 1.58 0 2.861 1.183 2.861 2.641s-1.281 2.641-2.861 2.641c-1.58.001-2.861-1.182-2.861-2.641zm-13.537 5.944c-4.862 0-8.804-3.548-8.804-7.924s3.942-7.924 8.804-7.924c.566 0 1.118.05 1.654.142l.22-.658.926.928c3.489 1.053 6.005 4.017 6.005 7.513-.001 4.375-3.943 7.923-8.805 7.923zm7.921-34.826l.635.635v1.274l-1.274-1.274.639-.635zm-.957 10.186l.639 1.274-.639.635v-1.909zm.299 4.499c0 1.459-1.281 2.641-2.861 2.641-1.58 0-2.861-1.183-2.861-2.641 0-1.459 1.281-2.641 2.861-2.641 1.58 0 2.861 1.182 2.861 2.641zm-2.846-15.957l.639-.635.635 1.271-1.274-.636zm.002-5.091h1.274l-1.91 1.274.636-1.274zm-1.078 8.634c1.251 3.231.129 6.677-2.507 7.698-2.636 1.021-5.786-.771-7.037-4.002-1.251-3.231-.129-6.677 2.507-7.698 2.636-1.02 5.786.771 7.037 4.002zm-11.015-2.904l-.635-2.545 1.91.635.635 1.91-.635.635-1.275-.635zm5.093-5.094l-1.91-.635 1.271-1.274.639 1.909zm-8.818-9.622c2.548-1.336 5.775-.203 7.208 2.53 1.433 2.733.529 6.032-2.019 7.368-2.548 1.336-5.775.203-7.208-2.53-1.433-2.733-.529-6.032 2.019-7.368zm-4.549 5.167l1.274 1.274-.639.635-.635-.635v-1.274zm-10.6 31.002c-3.212-2.242-5.29-5.43-6.025-8.724h-.558l.333-1.333c-.292-2.612.271-5.22 1.798-7.409 3.646-5.225 11.422-6.122 17.548-2.102l.049.025-.005.005c.113.074.226.147.337.225 2.965 2.069 4.963 4.945 5.832 7.966l.839-.56v-1.91l.635 1.91 1.274.639-.639.635h-1.926c.499 2.199.4 4.446-.363 6.492l.38-.127 1.91 1.274v1.271l-.635 1.274-2.545-.635-.224-.892c-.029.043-.055.087-.085.13-2.323 3.329-6.323 4.902-10.504 4.566l-.008.016-1.274 1.271-3.181-.635.396-1.586a15.776 15.776 0 0 1-3.359-1.786zm-.22 33.287h-1.274l-1.274-.639 1.65-.549c-2.237-2.032-3.589-4.658-3.589-7.528 0-1.07.192-2.106.543-3.091l-1.149-.287-1.271-2.549 2.545-1.271 1.53 1.148c1.151-1.455 2.704-2.7 4.541-3.646l-.342-.686 1.91-.635.182.546c2.021-.764 4.294-1.195 6.699-1.195 1.363 0 2.682.14 3.939.399v-3.569h-1.274l-1.271 1.274-.639 1.271-1.649-1.649a3.042 3.042 0 0 1-1.307.294c-1.58 0-2.861-1.183-2.861-2.641 0-1.459 1.281-2.642 2.861-2.642 1.025 0 1.922.499 2.427 1.247l1.168-.973 3.181.635.635 1.91v.639l3.12 5.719c4.129 2.085 6.858 5.674 6.858 9.753 0 6.443-6.8 11.666-15.187 11.666-4.364 0-8.295-1.416-11.065-3.68l.363.729zm8.719 8.563c0 1.459-1.281 2.641-2.861 2.641s-2.861-1.183-2.861-2.641 1.281-2.641 2.861-2.641 2.861 1.182 2.861 2.641zm-15.738 21.021c0-4.103 3.806-7.429 8.502-7.429.581 0 1.149.051 1.698.148v-4.484l-1.271-2.545h2.545l1.91 3.82-1.564 3.649c1.636.606 3.008 1.648 3.93 2.958l1.454-.242 1.625-1.896c-1.015-.543-1.873-1.295-2.501-2.258-1.919-2.942-1.205-7.032 1.45-10.485h-1.213l1.274-6.365 2.693 3.59a17.3 17.3 0 0 1 1.276-.921c5.707-3.724 12.506-3.413 15.187.695 2.68 4.108.227 10.457-5.481 14.181-3.025 1.974-6.358 2.814-9.221 2.556v3.449l-5.634-.511a6.55 6.55 0 0 1 .344 2.092c0 2.336-1.234 4.418-3.163 5.78l-1.731 3.462-1.271.635v-2.735a9.663 9.663 0 0 1-2.337.287c-4.694-.002-8.501-3.328-8.501-7.431zm5.613 21.462c-1.58 0-2.861-1.183-2.861-2.641 0-.807.393-1.529 1.012-2.014l-1.202-1.199 2.495.622c.18-.033.366-.051.557-.051 1.58 0 2.861 1.183 2.861 2.641 0 1.459-1.281 2.642-2.862 2.642zm.452 15.467l-.639.639v1.271l-1.271-1.271.635-1.274 1.275.635zm-.32-11.137l-1.274.635h-1.271v-1.91l1.91-.635.635 1.91zm3.82-1.591v1.906l-1.271-1.271 1.271-.635zm-3.5 3.499l3.819 3.82 1.271 2.545-2.545-.635-2.545-4.455v-1.275zm1.59 6.366v1.91l-1.274-1.274 1.274-.636zm-.639 8.596l2.549.635-1.274 1.271h-1.274v-1.906zm2.229-3.504l-.635-1.274.635-.635.639-1.274h1.271l.639 1.274-1.274 1.91h-1.275zm1.594-21.641l2.545-1.91h1.271v1.91h-3.816zm3.18-3.184l.447-1.345c-.882-.45-1.48-1.317-1.48-2.313 0-1.459 1.281-2.641 2.861-2.641.184 0 .364.018.539.048l-.458-.114.635-1.274 1.274.639.635 1.271-1.69-.422c1.12.358 1.926 1.338 1.926 2.494 0 1.459-1.281 2.641-2.861 2.641-.056 0-.111-.005-.167-.008l-.388.388-1.273.636zm-12.409 17.823h3.18v1.274l-1.91.635-1.271-.635v-1.274zm1.588 42.011h-1.274v-1.274h1.274v1.274zm.639-6.37l-.639 1.274-.635-2.545h1.274v1.271zm3.292-6.354l-4.25-.327.635-1.274 3.296.366c-.171-1.972 1.156-3.968 3.325-4.756 2.308-.838 4.764-.014 5.804 1.839l.625-.313-.515.515c.059.12.113.244.16.373.818 2.254-.575 4.828-3.111 5.748-2.442.888-5.049-.085-5.969-2.171zm8.8 17.815l-1.274-.635.639-1.274 1.271 1.274-.636.635zm-2.172-5.849c-1.58 0-2.861-1.183-2.861-2.641 0-1.459 1.281-2.641 2.861-2.641s2.861 1.183 2.861 2.641c.001 1.459-1.28 2.641-2.861 2.641zm0-21.021c-1.58 0-2.861-1.183-2.861-2.641s1.281-2.641 2.861-2.641 2.861 1.183 2.861 2.641-1.28 2.641-2.861 2.641zm.898-22.141l-.635-1.274v-1.271l2.545.635.639 2.545-2.549-.635zm1.911-13.051l1.274-1.271 1.271.635-1.271 1.274-1.274-.638zm5.445 8.888c2.249 0 4.072 2.759 4.072 6.163 0 2.181-.751 4.093-1.88 5.189v1.085h-1.274l-.353-.177a2.735 2.735 0 0 1-.565.066c-2.249 0-4.072-2.759-4.072-6.163s1.823-6.163 4.072-6.163zm.551 65.815a2.999 2.999 0 0 1-1.739-.547h-1.074l.679-.339a2.518 2.518 0 0 1-.728-1.755c0-1.459 1.281-2.641 2.861-2.641 1.58 0 2.861 1.183 2.861 2.641.001 1.458-1.28 2.641-2.86 2.641zm2.915-14.551l-1.274.635-.635-1.271-2.545-1.274 1.906-3.181 3.819.635-1.271 4.456zm1.91 10.184h-1.274l1.274-.635v.635zm-.321-31.507l2.938.586a6.87 6.87 0 0 1 1.538-1.462c2.437-1.695 5.456-1.571 6.741.278 1.286 1.849.352 4.722-2.085 6.417-2.437 1.695-5.456 1.571-6.741-.278-.519-.746-.671-1.659-.514-2.594l-.602-.402-1.275-2.545zm12.414 9.229l-.639 1.91h-1.271l.635-2.545 1.275.635zm-10.645 8.375c0-1.459 1.281-2.641 2.861-2.641 1.58 0 2.861 1.183 2.861 2.641 0 1.459-1.281 2.641-2.861 2.641-1.58.001-2.861-1.182-2.861-2.641zm4.916 5.629v1.274l-3.184.635-.635-.635v-1.274l2.545-.635 1.274.635zm-2.548 16.096v-1.274l-1.271.635 1.271-1.271 3.819 3.82h-2.545l-1.274-1.91zm6.216 12.998c-1.58 0-2.861-1.183-2.861-2.641 0-.621.234-1.19.622-1.641l-2.067-2.07 3.184.639.274.548a3.07 3.07 0 0 1 .848-.118c1.58 0 2.861 1.183 2.861 2.641s-1.281 2.642-2.861 2.642zm6.197 4.121l-1.274-.639.635-1.271h1.274l-.635 1.91zm.846-18.098a7.344 7.344 0 0 1-2.141-.313l.655.654-1.91.639.521-1.566c-1.449-.648-2.409-1.768-2.409-3.045 0-2.006 2.365-3.632 5.283-3.632 1.245 0 2.388.298 3.291.794v-.055l2.548.635 2.545-1.271-1.274 2.545-1.886.471c.035.168.059.338.059.513.001 2.005-2.364 3.631-5.282 3.631zm7.484 6.329c-1.58 0-2.861-1.183-2.861-2.641 0-1.459 1.281-2.641 2.861-2.641s2.861 1.183 2.861 2.641-1.281 2.641-2.861 2.641zm3.767-23.993l-.639-.635 1.274-2.545h2.545l-.635 2.545-2.545.635zm2.859 12.094l-.635-.635 1.91-1.91.635 1.91-1.91.635zm1.911-6.363l-.635-1.274h1.271l.639 1.274h-1.275zm-.635-35.647v-1.91h3.18l1.91 2.545v1.274l-2.545.635-2.545-2.544zm6.955 29.586c-1.58 0-2.861-1.183-2.861-2.641 0-1.459 1.281-2.641 2.861-2.641 1.58 0 2.861 1.183 2.861 2.641s-1.281 2.641-2.861 2.641zm5.137-10.172l-5.729-.635 1.271-1.91 3.819-.635 1.274.635-.635 2.545zm3.817-16.23v-1.274l1.274.635-1.274.639zm-1.91-8.913l.328.982c.037-.002.073-.005.111-.005 1.58 0 2.861 1.183 2.861 2.641 0 1.459-1.281 2.641-2.861 2.641-1.58 0-2.861-1.183-2.861-2.641 0-1.067.687-1.984 1.673-2.401l-1.157-.578-.639-1.274 1.274-.635 1.271 1.27zm-3.18-10.184l1.274.639v1.271l-1.91-.635-1.274-.635 1.91-.64zm-2.231 3.182l-1.91.639.635-1.274 1.275.635zm2.866-15.276l.639 1.274-.639.635-1.91-1.271-1.271-2.549 3.181 1.911zm-5.379-3.93c-1.58 0-2.861-1.183-2.861-2.641 0-1.459 1.281-2.641 2.861-2.641 1.58 0 2.861 1.183 2.861 2.641 0 1.459-1.281 2.641-2.861 2.641zm1.56-17.709l.639-1.274.635.635-1.274.639zm.562-6.307c.818 2.254-.575 4.827-3.111 5.748-2.536.921-5.256-.16-6.074-2.414-.781-2.151.455-4.589 2.773-5.608l.124-.332.251.18c2.527-.897 5.223.183 6.037 2.426zm.629-16.925c-3.465 0-6.273-2.291-6.273-5.118 0-2.436 2.088-4.471 4.883-4.987l.199-.399v-2.545h1.274l1.274 1.274v1.663c2.811.507 4.915 2.548 4.915 4.994.001 2.826-2.808 5.118-6.272 5.118zm11.22-31.191v1.271l-1.271 1.274-.639-.635-.635-1.91h2.545zm-4.439 10.413c1.534 1.152 2.148 3.005 1.595 4.461l2.526.723 1.274 2.545v1.274L168 86.725l-3.184.639-1.271-4.455h-1.274l.435-.725a4.59 4.59 0 0 1-2.289-.912 4.755 4.755 0 0 1-1.03-1.06l-.297.148-.639-.635.345-.688c-.325-1.027-.212-2.105.412-2.937 1.133-1.508 3.508-1.635 5.306-.284zm-2.353-14.304c2.392 3.934.341 9.55-4.581 12.544-.698.424-1.416.77-2.141 1.046l-.168.168-1.91 1.274-3.819.635-1.274-1.274v-.499c-1.647-.553-3.038-1.581-3.933-3.053-2.392-3.934-.341-9.55 4.581-12.543 4.923-2.994 10.853-2.232 13.245 1.702zm-4.758-24.35c-1.58 0-2.861-1.183-2.861-2.641s1.281-2.641 2.861-2.641c1.58 0 2.861 1.183 2.861 2.641s-1.281 2.641-2.861 2.641zm-12.954 111.942l-.064.016c-1.273-.105-2.433-.52-3.365-1.151l-.387-.775-.381.153c-.903-.863-1.457-1.972-1.495-3.188l1.876 1.125 3.816.639v3.181zm4.458-33.098l1.785-4.762c.111-.049.222-.098.338-.14l.038-.012 4.203 3.004-.639 1.274-3.816 1.271-.639-.635h-1.27zm-12.095 96.431v-1.855c1.029.564 1.74 1.387 1.933 2.326l-.659.165-1.274-.636z" fill="#80878b"/><path class="st2" d="M23.007 90.732v-2.077l-1.385.693zM11.911 83.105l1.389-.692-.692-.696zM46.797 92.518c1.97-3.323 15.197-12.603 14.119-15.379.233.6-11.871 5.146-10.999 7.722 1.008 2.98-7.129 8.663-7.168 12.281-.022 2.066 5.102-6.605 4.048-4.624zM33.41 81.025l2.081 2.08.692-2.08V79.64h-2.08zM20.234 69.929l1.388 1.388 1.385-1.388.696-1.389v-3.465l-1.388-.693zM52.132 68.54l.696 2.081h1.385l-.692-1.385zM53.064 126.786c1.754-1.332 7.404-2.539 8.493-3.878-.388.476-7.92 1.704-9.354 2.647-2.37 1.56-7.249 5.574-7.249 8.796 0-1.023 6.981-6.687 8.11-7.565zM31.842 114.562c-1.16 0-2.487 5.105-2.44 5.847.073 1.136 1.409-1.073 2.493-3.142a6.333 6.333 0 0 1-.506.546c.484-.951.86-1.677 1.145-2.215-.059-.38-.29-.725-.692-1.036zM72.247 29.014h1.384l-1.384-1.389zM44.158 67.447l-.693 2.776h2.773l2.081-2.08-2.773-1.389zM51.094 6.091h1.388l-1.388-1.384zM33.755 40.112l.696-.697-1.389-.692-.692 1.389 1.385 1.384zM41.733 42.883l-.696 1.388 1.388-.696zM66.005 167.712l1.384-1.385-1.384-.696zM71.204 103.217v-1.385l-2.08-1.388v1.388l.692 1.385zM76.06 137.545l-1.388.692-.693 1.389h1.385zM58.724 52.34a1.515 1.515 0 0 1-.298-.047c.142.059.236.069.298.047z"/><path d="M58.769 52.33c-.009.009-.032.005-.045.01" fill="#617237" stroke="#9fc250" stroke-width="0" stroke-linecap="round" stroke-linejoin="round"/><path class="st2" d="M13.271 108.87c.804-.343 1.44-.699 1.823-1.069-.699.183-1.401.35-2.106.505l.283.564zM3.181 51.501v2.918c1.664-1.305 3.723-2.734 5.973-4.8.198-.183-4.148 1.301-5.973 1.882zM45.198 6.21v1.304l.512-1.529z"/><path class="st2" d="M65.749 1.094l-7.701.48-11.069 3.852-.585.257.884.442-.692 2.081-2.773-.692-.157-.626-5.018 2.208 2.054 1.542h1.388l-.696 1.388-2.773 1.385-2.773-.692v-1.388l1.385-1.385.146-.291-2.423 1.066-3.898 3.031c1.188.458 2.52.753 3.072.818-.967.171-8.03 1.698-6.261 3.254.888.781 3.643.227 4.408 1.06.689.75-15.977 7.396-15.987 7.647-.021.549 1.677 3.35 2.301 3.982-.777-.621-2.977-1.917-4.286-1.705l-.66.942c.758 2.007 6.375 7.397 6.78 7.397-.338 0-5.026-1.497-9.96-2.856l-1.02 1.457-1.327 4.78c2.961.777 6.498 1.615 8.615 1.794l-.652-.13-.691-2.082 1.388-.696 2.773 2.081v1.388l-2.475-.494c-.952.023-2.006.064-2.158 1.011.069-.428 2.825-.236 6.35.146l-.332-.663 4.857-1.388.692.696-.629 1.891c4.883.592 9.738 1.207 10.593.954-4.072 1.206-8.629.651-13.117.218l2.461-.982.063-.19a370.79 370.79 0 0 0-4.589-.535l.796 1.59c.422.037.845.076 1.268.117l-1.008.402-.26-.52c-3.253-.286-6.443-.412-9.356.349 3.766-.984-2.081-.964-3.429-.421a30.789 30.789 0 0 0-4.254 2.108l-.653 1.415c3.946-1.459 12.152-.412 13.218-.283 2.161.262 4.77 3.726 6.521 4.159 6.106 1.511 12.57-7.44 18.862-3.317 1.87 1.225 14.766 4.362 15.127 5.565-1.8-5.997-16.977-4.335-18.825-9.071-.02-.052 16.547 6.05 19.16 6.651-1.487-.617-7.215-5.509-13.089-10.657l-.139.555-1.385-.696.416-.831c-6.799-5.976-13.448-11.957-13.598-11.715-.413.668 1.629 5.907 1.088 5.842-1.351-.163-5.191-5.152-7.216-6.653l-4.961 4.342-.696-2.773 1.388-1.388h1.388l.692-2.773 2.081-.692.534 2.139c4.188-1.872 9.62-2.126 13.782-4.564 3.927-2.301 7.522-5.265 10.34-8.853 5.54-7.048 12.957-11.023 21.956-11.57 1.819-.111 3.724.155 5.653.659V.701l-.321-.088-5.776.961h-3.849l-.963-.48zM41.733 42.883l.692.692-1.388.696.696-1.388zm-8.671-4.16l1.388.692-.696.696v1.385l-1.385-1.385.693-1.388zM51.094 6.091V4.707l1.388 1.385h-1.388zM1.736 70.463v4.752l.964 7.701 1.924 8.665.503 1.005c-.392-1.985-.764-3.736-.535-4.06 1.671-2.367 3.53.593 2.024-5.488-1.11-4.484-3.101-8.42-4.88-12.575z"/><path class="st2" d="M76.658 177.34c-3.133-2.873-6.99-5.901-6.976-6.412.015-.569 9.842 2.735 2.593-3.409-4.014-3.402-12.004-6.219-14.722-10.641 2.056 3.345 13.472 3.03 4.404-3.768-4.811-3.607-12.655-6.635-15.64-12.212-2.31-4.316 4.607-10.237 7.222-12.28 2.245-1.754 15.803-6.394 16.948-2.973-.334-.998-2.18-2.409-3.047-3.075.428.147 4.343 1.086 3.892.073-1.952-4.384-17.069-14.763-21.868-14.701.818-.01 9.48 5.52 11.846 8.119-2.786-2.606-14.461-6.577-17.17-7.504a76.388 76.388 0 0 0 4.537-5.341h-1.399v-2.081h.696l1.818.608c1.933-2.596 3.737-5.288 5.476-8.044.026.7.645 4.642 1.438 4.642 1.177 0 2.032-1.12 2.787-2.842l-1.811-.606v-1.385l2.081.692v.649c2.398-6.076 4.013-17.93 12.559-17.656 1.351.043 2.842.181 4.337.458V74.64c-4.467-.518-10.441-2.831-14.62-3.947 5.123-6.459 6.722-5.296 12.817.184-.253-.209.79.818 1.802 1.866v-2.346c-6.487-2.381-9.031-11.008-5.571-16.572-.062.1 1.009 6.14 2.122 5.85.805-.21 2.489-3.118 3.45-5.239V44.237l-.947 1.419-1.388-.692 1.388-1.388h.947V24.212c-3.99 2.413-8.112 5.586-8.112 7.29 0 .916 4.958-.008 5.354.085-1.19-.277-14.201 10.166-14.201 11.44 0 2.494 3.195 1.615 6.306.16v-2.385l.692-.692 1.388.692-.386 1.538a50.815 50.815 0 0 0 3.914-2.304c-3.096 6.139-9.263 9.976-12.651 16.119-3.6 6.528-1.708 8.163 3.622 3.031-.909 2.776-1.652 11.763-5.053 9.504-.886-.589-16.994-10.795-17.006-8.235-.007 1.495 2.162 2.846 3.643 3.99-2.6-1.657-6.332.156-8.06 1.974-1.776 1.869-8.249-1.55-8.719 2.714-.251 2.282 13.923 4.338 16.769 5.085-9.544 7.935 10.509 2.468 12.33 2.768-1.367-.225-10.152 7.452-11.45 9.552-1.652 2.672-2.025 6.346-3.648 9.222-.975-2.376-4.742-19.757-7.245-19.116-1.954.501-1.953 5.028-1.827 6.582-1.189-2.877-9.468-25.437-10.974-25.437-.276 0-.459.465-.579 1.165l.855.569v1.388l-1.043.26c-.061 1.848.025 3.861.04 4.359-1.848-3.703-5.606-14.377-10.329-14.377-1.708 0 2.951 12.601 2.726 12.566-4.295-.663-6.94-1.764-2.633 3.746.891 1.14 9.607 13.179 9.886 13.179-1.163 0-13.653-10.705-13.653-6.267 0 1.703 5.235 3.233 5.584 5.582.355 2.394-5.369 1.67-.381 5.424 1.059.797 10.017 4.751 9.978 4.989-.512 3.084-4.618 3.839 1.44 5.808 2.974.967 6.101 1.577 9.18 2.094 2.661.447 5.348.083 7.824 1.258 4.384 2.08 1.994-1.47 5.164-1.857-2.968.363-6.236 19.154-5.465 21.596-.585-1.485-2.323-9.777-2.883-9.189-1.199 1.26-1.247 5.44-1.405 6.803l-2.485 10.583c-.363-.225-.16-6.371-.378-11.986-.077.162-.161.336-.25.518-.055.389-.27.811-.642 1.265.23-.439.449-.872.642-1.265a1.358 1.358 0 0 0-.003-.403c-.285.538-.662 1.264-1.145 2.215.194-.187.36-.369.506-.546-1.084 2.069-2.42 4.278-2.493 3.142-.048-.742 1.28-5.847 2.44-5.847.402.311.632.656.693 1.036l.239-.446c-.266-6.315-1.094-11.792-3.911-7.134-2.403 3.974-2.629 8.479-3.841 12.83-.414 1.486-.915 1.453-1.489 1.584l3.309 4.137c.51-2.103 1.612-3.898 4.152-3.898.788 0-.766 8.11 1.785 8.11 3.544 0 2.68-6.337 3.781-8.223-.572.98 2.322 2.666 3.665 1.76 1.202-.811 1.473-4.135 1.656-5.276.226-1.414 1.537-9.947.645-10.839 5.648 5.648 15.342 7.156 21.225 12.94-13.879-.495-18.299 10.075-24.51 19.615l1.196 1.096c.388-.576.772-1.172 1.146-1.809.362 1.445.574 2.826.62 4.171l4.082 5.786 1.339-.668.692.692 1.256 2.508 2.217 1.611.569.736h.12v.155l7.492 9.698 5.296 5.296 1.925 2.886 4.332 3.852 4.815 5.862.319.018v-5.307zM72.247 29.014v-1.388l1.385 1.388h-1.385zM46.238 70.223h-2.773l.692-2.777 1.388-.692 2.773 1.388-2.08 2.081zm6.59.398l-.696-2.081 1.388.696.692 1.385h-1.384zM11.911 83.105l.696-1.388.692.696-1.388.692zm11.096 7.627l-1.385-1.385 1.385-.692v2.077zm.696-22.192l-.696 1.388-1.385 1.388-1.388-1.388 2.081-5.546 1.388.692v3.466zm12.48 12.485l-.692 2.081-2.081-2.081.692-1.385h2.081v1.385zm6.566 16.117c.039-3.619 8.177-9.302 7.168-12.281-.872-2.576 11.232-7.122 10.999-7.722 1.079 2.777-12.149 12.056-14.119 15.379 1.054-1.981-4.07 6.69-4.048 4.624zm9.454 28.413c1.434-.944 8.966-2.171 9.354-2.647-1.089 1.338-6.739 2.546-8.493 3.878-1.129.878-8.11 6.543-8.11 7.566 0-3.223 4.879-7.237 7.249-8.797zm13.802 42.157v-2.081l1.385.696-1.385 1.385z"/><path class="st2" d="M60.997 108.46c2.402.268 9.417-1.089 11.751-2.098.472-.204 2.169-1.655 3.91-3.02v-5.927l-1.291 1.294h-1.388l-.692-1.388 2.081-2.081 1.291.645V91.62l-.405.034c-3.389.319-22.688 11.058-20.009 13.158 1.822 1.428 4.877-1.268 6.587-1.648 1.358-.301-3.538 5.106-1.835 5.296zm8.127-8.016l2.081 1.388v1.385h-1.388l-.692-1.385v-1.388zM76.658 22.179a8.91 8.91 0 0 0-.371.39c.119-.01.244-.027.371-.047v-.343zM76.658 10.374v-3.13c-2.184.336-1.519 1.638 0 3.13zM46.392 150.152l.104.148.886.644zM71.28 158.596c2.338.804 3.996-6.105 5.378-11.993V126.11l-1.989.397 1.989-1.49v-16.143c-.364.578-.654 1.091-.809 1.491-1.956 5.048-2.281 10.459-4.593 15.419-1.673 3.589-7.64 8.435-7.647 12.374-.003 1.638 7.886-2.308 7.886-2.484 0 1.151-6.77 13.541-4.766 13.541.975 0 2.998-1.505 3.733-2.187-.012 1.818-.993 10.945.818 11.568zm3.392-20.359l1.388-.692-.696 2.081h-1.385l.693-1.389zM25.442 97.604c-4.619 0-7.787 7.068-10.352 13.925l3.671 3.06c.705-1.924 1.86-3.996 2.862-5.808v-.711h.392c.88-1.605 1.559-2.94 1.559-3.68 0-1.203-6.356 5.536-5.683 6.209-1.193-1.192 8.236-12.995 7.551-12.995zM76.658 69.414v-2.965c-2.442-2.309-4.423-3.946-5.258-4.197 1.312.428 3.491 4.825 5.258 7.162z"/><path transform="rotate(45.001 4.31 57.451)" class="st2" d="M3.328 56.958h1.963v.979H3.328z"/><path class="st2" d="M4.285 62.994l1.388.692v-1.384l-1.388-.696zM18.444 42.181c-.27.179-.884.211-1.719.14l.342.068c.565-.014 1.094-.021 1.377-.208zM23.438 27.761c.22-.134.594.027 1.065.376l.585-.512-.158-.634c-.517.231-1.018.482-1.492.77zM20.026 117.989v.063l.442.884 1.154-1.154-.696-.696zM23.069 18.933l-.062.369 2.777-.692v-1.388l-.165-.22-.781.455zM30.637 99.751l-2.08.693v1.388l2.773-.696zM38.96 102.524v-2.08l-1.388-.693-.693 1.385.693 1.388zM41.037 53.286l-.692.693.692 1.388h1.388l1.389-2.081-.696-1.388h-1.385zM44.506 28.318l1.388.696 1.385-1.389-1.385-.692zM53.523 30.748l2.08-.696 1.385-.692-1.385-1.385-3.469-.696zM47.975 26.933l1.384-.696-.692-.692zM49.707 118.824l-2.08-.696.696 1.388.692.693zM64.614 11.329l-2.773.693-.692 2.773 4.158-2.773zM63.23 23.118l-.693-1.389-3.469-.692-2.772 1.388 6.934 2.773zM51.44 135.812l1.388-.696-1.388-1.384zM52.828 19.998v.693l1.385.692.696-.692zM54.213 60.221l.696-1.388-1.388-.693-.693.693zM54.213 131.651l-.692 1.388.692.693 1.388-1.389zM58.374 31.094l-.692 1.385.692 1.388 2.081-1.388zM72.247 13.756l.692 1.385 2.081.696.692-.696-2.773-2.773zM58.376 143.093v-1.388l-2.773-2.773-2.776-.693 1.388 1.385v3.469z"/><g><path class="st2" d="M242.158 36.581l-2.365-.591v1.185h1.181zM232.695 28.301l-1.184-.59-.591.59 1.181 1.775zM225.596 27.711v4.14h.591zM248.073 40.724l-1.184 1.181v.59l1.774.594zM225.596 14.697l-.59-1.774-.594 1.774.594.591zM227.962 113.476v1.184l3.549-1.774-.591-1.775z"/><path class="st2" d="M249.847 59.652l-1.775-1.775-.798.796c-.108-.93-.205-1.764-.262-2.415a34.935 34.935 0 0 0-1.376-7.15l2.436.486-.59-1.181-1.775-.594-.295.588c-1.567-4.717-4.288-9.096-8.517-11.509-4.5-2.661-9.645-2.855-14.083-6.032-5.074-3.402-10.082-6.908-15.182-10.27.577 4.135 9.261 9.428 12.91 11.385 4.763 2.218 11.511 2.647 15.533 6.115 3.605 3.034 5.406 6.938 6.571 11.15l-.487-.243-1.184.59-.59 1.184 1.181 1.775h1.775v-.461c1.205 5.555 1.782 11.416 4.193 16.396.573-1.513.277-5.04-.065-8.13l2.38.475v-1.18z"/><path class="st2" d="M228.555 41.905l1.181-.591.594-1.774h-1.775zM205.485 19.428l-.59 1.184h1.774l-.59-1.775zM225.006 43.089l.59 1.181h1.185l.59-2.365h-1.184zM194.841 77.986l-1.184-.591-.591 2.366 1.775-.591zM224.412 16.472v1.181l-2.365 1.775 2.959-.591zM186.558 115.251l.594-.591-.594-.593zM183.603 93.958v1.181l1.181.594.593-.594-.593-1.181zM208.444 66.157l.59 1.184 1.775-1.775h-1.181zM209.034 73.846l.594.59 1.181-.59-1.181-1.184zM207.26 77.395v2.366l-.591 1.184.591 1.181 2.368-.591V78.58l-1.184-1.185zM232.101 63.792l-.59-1.185-2.956-1.184-.593 1.775 2.368.594zM197.206 108.152l-2.365-.59 1.181 1.184zM184.193 141.277l.591 1.775 1.184-.594.59-1.774-1.181.593zM226.781 129.445l.217.109.042-.13-.853-.569.594.59zM196.022 124.715l1.184-.591-.59-.593zM202.53 101.054l-1.775-.591v1.184h1.775zM239.2 86.859l-1.775-2.365-.59 1.181 1.774 2.368zM219.092 131.814l1.181-.594v-1.775h-1.181zM193.066 53.734l.591.594 1.774-2.366-2.955.591zM201.939 144.827h.591l-.591-1.184zM207.854 109.927l-.594 1.184 1.184-.594zM198.39 94.549l-1.184-.591-.59 1.181h1.774zM239.793 73.846v-.59l-1.184-1.775-1.184.59.594 1.185zM238.019 96.323l-1.184-.59v1.774h.59zM234.469 99.279l-1.184 1.775 1.775 1.184 2.365-.591-1.181-2.368zM225.006 102.238l.71-.71.736-.9-2.04 1.02.594.59zM226.781 89.818h-1.185v1.181l1.185.591zM219.092 53.144l-2.368-.591v1.181l.804 1.609.781.893 3.149 1.048-2.366-4.14zM226.187 95.139l-1.775-1.181-.59 1.181 2.365 2.368zM200.165 107.562h1.181l.593.59 3.546-1.181.594-1.184-4.14-2.959zM197.206 114.66h-2.365l-1.775-1.774-1.774-.594v2.368l5.914 2.956 4.14 2.365 1.184-1.181-.591-1.774zM194.841 17.063l.59-.591-.59-1.184zM216.723 83.9h-1.181l-.593 1.185 1.184 2.958.59-.593.594-1.181zM213.768 92.183h1.181l1.184-2.365h-1.184zM227.962 102.828l1.184.594v-1.184l-1.184-.591z"/><path class="st2" d="M184.911 54.058a16.426 16.426 0 0 0-1.57-1.265v15.275l4.401-1.32h2.365l.594 1.184-2.959 1.775-2.365-.59 1.181 4.73-3.217-2.681v48.121c2.958-2.271 5.151-5.559 6.09-9.641 1.127-4.897.46-9.959 1.774-14.902.075-.282.154-.564.235-.844l-.15.06-.59-3.549.59-1.184.59-.591 1.361.34c.195-.436.397-.868.61-1.295.97-1.943 3.028-3.897 3.274-6.128.495-4.497-2.892-9.961-4.845-13.808-.512-1.01-.988-2.11-1.462-3.245l-.713.474.296-1.475c-1.431-3.466-2.942-7.106-5.49-9.441zm-.127 41.675l-1.181-.594v-1.181h1.181l.594 1.181-.594.594zm1.774 19.518v-1.184l.594.594-.594.59zm7.099-37.856l1.184.591v1.184l-1.775.591.591-2.366zM217.92 21.042c6.286 1.597 12.696-.201 19.05-.654l-2.806-2.658-2.063.517.536-1.964-1.807-1.712-5.38-3.588c-1.375-.37-2.718-.816-3.993-1.41v.391l-2.959-1.775.273-.205c-.127-.098-.243-.207-.365-.31l-4.421-1.768-8.662-2.408-6.6-1.099c4.506 4.713 7.819 11.176 12.738 15.253h1.123l-.499.499c1.712 1.311 3.62 2.328 5.835 2.891zm7.086-8.119l.59 1.775-.59.591-.594-.591.594-1.775zm-.594 4.73v-1.181l.594 2.365-2.959.59 2.365-1.774zM202.967 155.472h.153l1.775 2.365v.109l3.797-3.797.71-.769c-2.168.637-4.345 1.254-6.435 2.092zM256.819 67.034l.964-.964v-2.408l-.71-1.183a206.597 206.597 0 0 0-.684 4.554h.43zM202.53 159.612l-2.365-2.365v-.464c-7.186 3.956-10.237 10.802-15.957 16.152-.281.262-.57.516-.866.764v8.92l2.347-2.798c-.138.018-.274.038-.412.055-.002-.012.189-.08.525-.19l1.233-1.47 4.332-3.852 5.293-8.181 6.802-6.803-.932.232zM257.783 75.215l.48-4.813-.964-1.925-1.023-.614a90.685 90.685 0 0 0-.544 5.189c-.323 4.436.206 8.85.563 13.271l.523-1.483-.48-2.405.961-6.257.484-.963z"/><path class="st2" d="M244.081 112.618c-2.723 1.456-5.72 2.62-8.813 3.587-.094-.257 6.669-4.104 10.019-6.172l1.424-3.052.964-.483 5.709-12.296c-.06-6.917-1.945-13.654-1.765-20.594.118-4.533.707-9.01 1.399-13.475l-.216.108-1.181-1.775v-1.775l1.87.467c.246-1.526.495-3.051.732-4.578.193-1.246.359-2.566.483-3.921l-2.467-7.402-.028.056-1.184.591.594-1.775h.127l-5.518-9.196-5.675-6.986c-10.311-1.481-21.207 2.84-29.673-4.594l-.073.073.036-.107a18.99 18.99 0 0 1-1.166-1.119c-4.687-4.903-8.174-11.769-13.165-16.17L187.995.611l-4.653.332v3.593c.731.108 1.459.234 2.182.4 10.792 2.481 16.309 17.775 21.844 26.193 2.37 3.605 4.822 7.218 7.786 10.366l.389-.774.59.591-.782.39a37.262 37.262 0 0 0 1.711 1.685c3.971 3.646 8.998 5.362 13.327 8.469 8.777 6.298 15.967 16.05 17.071 27.015.587 5.829.048 12.518-2.225 18.308l4.022 1.508-1.775 1.184-2.368-.594-.411-.823c-1.245 2.773-2.919 5.297-5.095 7.363-.949.9-1.984 1.661-3.072 2.333h.89l-.59 2.365-3.549-.591.015-.059c-2.615 1.215-5.365 2.2-7.925 3.477 4.721 5.375 4.982 10.855 3.191 17.73l3.707-3.397 3.368-4.332 1.927-4.813 2.405-.48 3.369-3.852.737-1.58zm-39.186-92.006l.591-1.184.594-.59.59 1.775h-1.775zm41.994 21.293l1.184-1.181.59 2.365-1.775-.594v-.59zm-7.096-5.915l2.365.591-1.184.594h-1.181V35.99zm-8.282-8.279l1.184.591-.594 1.775-1.181-1.775.591-.591zm-5.915 0l.591 4.14h-.591v-4.14zm1.185 16.559h-1.184l-.59-1.181 1.181-1.184h1.184l-.591 2.365zm2.955-2.956l-1.181.591V39.54h1.775l-.594 1.774zm17.796 27.174c-2.411-4.981-2.988-10.841-4.193-16.396v.461h-1.775l-1.181-1.775.59-1.184 1.184-.59.487.243c-1.164-4.212-2.966-8.116-6.571-11.15-4.023-3.467-10.771-3.897-15.533-6.115-3.649-1.957-12.333-7.25-12.91-11.385 5.1 3.362 10.108 6.868 15.182 10.27 4.438 3.177 9.583 3.37 14.083 6.032 4.228 2.413 6.949 6.792 8.517 11.509l.295-.588 1.775.594.59 1.181-2.436-.486a34.88 34.88 0 0 1 1.376 7.15c.056.651.153 1.485.262 2.415l.798-.796 1.775 1.775v1.181l-2.38-.475c.343 3.089.638 6.616.065 8.129zm-19.57 46.172v-1.184l2.959-2.365.59 1.775-3.549 1.774z"/><path class="st2" d="M204.118 30.439c-4.478-8.175-9.282-22.496-19.683-24.261a24.113 24.113 0 0 0-1.092-.157v11.327c2.982.55 5.649 1.708 7.576 3.952 1.725 2.009 3.297 4.174 4.817 6.396l1.471-2.354h.59l.594 1.775-1.297 2.593c1.053 1.582 2.095 3.176 3.157 4.751l.504-2.021.59-1.181 1.775 1.181.59 1.775-2.308 1.926a78.26 78.26 0 0 0 3.03 4.099c4.035 5.061 8.634 10.01 13.095 15.102l-.804-1.609v-1.181l2.368.591 2.365 4.14-3.149-1.048c6.236 7.173 12.112 14.661 15.69 23.169l.471-.235.59.591 1.184.591-1.262 1.577.033.088c2.066 5.718 1.525 9.005-1.847 13.39-5.048 5.947-10.468 11.58-16.163 16.91.419-1.463 2.704-3.596 3.888-5.008 1.612-1.921 3.229-3.842 4.823-5.782l-.71.71-.594-.59 2.04-1.02a185.797 185.797 0 0 0 2.699-3.381c1.934-2.493 3.743-4.33 4.443-6.683l-.309-.154-1.775-2.959 2.282-.38a11.51 11.51 0 0 0-.187-.95 31.25 31.25 0 0 0-.673-2.338l-1.422.712-.59-2.368.88-1.322c-2.447-5.702-6.32-11.104-10.05-15.707-6.382-7.876-12.968-15.422-18.812-23.741-.983-1.4-1.951-2.81-2.911-4.226l-1.637-.548-1.184-2.365 1.006.201a271.43 271.43 0 0 1-2.185-3.357l-1.186.791-.594-1.775.587-.94c-2.016-3.501-3.845-7.869-7.543-9.651-1.211-.584-2.54-.979-3.95-1.234v14.222c1.262 1.087 2.481 2.179 3.653 3.189 5.462 4.707 11.967 7.564 17.72 11.818 7.49 5.539 13.052 17.035 12.203 27.097l1.581.452 1.184 2.365v1.184l-1.775 1.771-2.498.501a17.528 17.528 0 0 1-2.065 3.628c-3.913 5.271-7.295 9.196-5.904 16.132 1.319 6.577 4.832 13.03 4.282 19.888-.03.369-.072.723-.121 1.071 3.576-3.818 7.591-7.33 12.083-9.967 4.484-2.632 9.892-4.647 13.473-8.549 5.872-6.398 7.04-16.947 5.628-25.179-1.599-9.321-8.217-18.494-16.082-23.808l-.517.259.227-.453a34.06 34.06 0 0 0-1.036-.662c-1.33-.811-2.632-1.539-3.899-2.27l-2.981.425-1.775-1.775-.59-1.775.143-.285a22.68 22.68 0 0 1-3.041-2.892c-1.944-2.236-3.613-4.679-5.152-7.207l-.23.92-2.368 1.775-.591-2.956 2.335-1.169c-1.07-1.833-2.09-3.703-3.108-5.562zm-9.277-13.376v-1.775l.59 1.184-.59.591zm30.755 72.755h1.184v1.771l-1.184-.591v-1.18zm-1.184 4.14l1.775 1.181v2.368l-2.365-2.368.59-1.181zm-9.463-1.775h-1.181l1.181-2.365h1.184l-1.184 2.365zm1.184-4.14l-1.184-2.959.594-1.184h1.181l.594 2.368-.594 1.181-.591.594zm13.013 15.379l-1.184-.594v-1.181l1.184.59v1.185zm5.914-1.184l-1.775-1.184 1.184-1.775h1.775l1.181 2.368-2.365.591zm3.549-30.757l1.184 1.775v.591l-1.775-.591-.594-1.184 1.185-.591zm-1.184 13.013l1.775 2.365-.59 1.184-1.775-2.368.59-1.181zm-.59 11.239l1.184.591-.594 1.184h-.59v-1.775zm-8.28-34.31l2.955 1.184.59 1.184h-1.771l-2.368-.594.594-1.774z"/><path class="st2" d="M215.13 74.067c.201-9.896-6.68-20.435-14.7-25.268-6.052-3.647-11.677-6.888-17.088-11.324v12.481c2.682 1.422 5.006 3.362 6.705 5.999 4.407 6.838 15.12 22.001 9.059 29.825l-.009.012 2.249 2.252v1.181l-2.365-.591-.801-1.6a36.663 36.663 0 0 0-1.671 2.571l.107.213-.781.975a35.132 35.132 0 0 0-3.548 9.761c-1.129 5.554-1.054 10.452-4.235 15.423a18.49 18.49 0 0 1-2.516 3.137l.433.866h-1.36c-.41.352-.834.673-1.266.978v9.597c10.643-.008 27.066 1.579 26.642-12.972-.175-6.005-2.947-11.557-3.967-17.412-1.015-5.833 1.506-9.759 4.563-14.109l-1.545-.387-.59-1.181 1.184-.594 1.683 1.123c.211-.299.423-.601.636-.907a17.48 17.48 0 0 0 2.446-5.12l-.625-2.192h-1.184l1.775-2.959.769.222zm-21.473-19.739l-.59-.594-.591-1.181 2.956-.591-1.775 2.366zm14.197 55.599l.59.591-1.184.594.594-1.185zm-7.099-9.464l1.775.591v.594h-1.775v-1.185zm-3.549-6.505l1.184.591v.59h-1.775l.591-1.181zm0 14.194l-1.184.594-1.181-1.184 2.365.59zm-1.184 16.563l.594-1.184.59.594-1.184.59zm5.324-4.734l-4.14-2.365-5.914-2.956v-2.368l1.775.594 1.775 1.775h2.365l4.733 2.365.59 1.775-1.184 1.18zm4.733-14.194l-.594 1.184-3.546 1.181-.594-.591h-1.181l1.775-4.734 4.14 2.96zm3.549-24.252l-2.368.59-.59-1.181.59-1.184v-2.365h1.184l1.184 1.184v2.956zm0-7.099l-.594-.59.594-1.184 1.181 1.184-1.181.59zm-.594-7.095l-.59-1.184 1.184-.591h1.181l-1.775 1.775z"/><path class="st2" d="M227.742 118.39c-.294-.706-2.002-3.187-2.869-4.764-2.317 1.394-9.944 6.774-13.47 9.095-1.982 9.282-11.3 10.674-20.509 11.1l1.582.949 3.546.594v2.956l-2.365.59-1.181-2.365-2.959 1.184.59-2.959-.3-.903c-2.213.087-4.403.134-6.466.237v12.684c.578 2.54.665 5.046 0 7.39v4.853c.273-.265.543-.53.808-.792 2.711-2.689 6.461-8.771 10.356-9.792 2.697-.615 5.111-1.72 7.585-3.013 5.68-3.01 11.793-6.32 16.435-10.845 3.903-3.912 1.789-10.539 4.267-14.395-.294 8.374-.704 13.532-7.388 18.821a91.074 91.074 0 0 1-4.878 3.599l.875.439v1.181l-1.775-.59-.362-.181a97.883 97.883 0 0 1-7.568 4.554c-1.791.97-4.462 2.796-6.621 2.685-.992-.3-4.692 4.666-5.304 5.349-2.062 2.302-4.189 4.543-6.432 6.66v4.708c.397-.418.79-.847 1.172-1.301 1.628-1.932 3.204-3.801 4.849-5.535l-1.62-.971v-1.181l3.221.536c2.895-2.786 6.107-5.105 10.238-6.595l-1.63-1.631 2.368-.594.59.594.509 1.019c3.818-1.195 7.843-2.08 11.424-3.863l.005-.005 3.849-5.776 3.731-2.611v-.002.001l1.082-.757.237-.285c1.509-2.906 2.698-6.065 3.631-8.908l-.217-.109-.594-.59.853.569c.257-.787.496-1.549.716-2.272.92-3.007 1.222-5.803-.011-8.762zm-41.774 24.068l-1.184.594-.59-1.775h1.184l1.181-.594-.591 1.775zm15.971 2.369v-1.184l.59 1.184h-.59zm18.334-13.607l-1.181.594v-2.368h1.181v1.774zM217.907 56.102l.401.133c-.259-.298-.52-.596-.781-.893l.38.76zM226.781 100.463l-.328.164c-.245.301-.49.601-.736.9l1.064-1.064zM227.962 130.039l-.921-.615-.042.13.963.485z"/></g></g></svg>